<svg xmlns="http://www.w3.org/2000/svg" xmlns:xlink="http://www.w3.org/1999/xlink" width="1080" zoomAndPan="magnify" viewBox="0 0 810 809.999993" height="1080" preserveAspectRatio="xMidYMid meet" version="1.0"><defs><clipPath id="8913747136"><path d="M 235 270 L 470 270 L 470 511 L 235 511 Z M 235 270 " clip-rule="nonzero"/></clipPath><clipPath id="1820de9520"><path d="M 242.382812 265.582031 L 490.078125 474.441406 L 431.09375 544.394531 L 183.398438 335.53125 Z M 242.382812 265.582031 " clip-rule="nonzero"/></clipPath><clipPath id="167dc79927"><path d="M 242.382812 265.582031 L 490.078125 474.441406 L 431.09375 544.394531 L 183.398438 335.53125 Z M 242.382812 265.582031 " clip-rule="nonzero"/></clipPath><clipPath id="d37333a891"><path d="M 253 329 L 254 329 L 254 331 L 253 331 Z M 253 329 " clip-rule="nonzero"/></clipPath><clipPath id="8e8be4bf17"><path d="M 242.382812 265.582031 L 490.078125 474.441406 L 431.09375 544.394531 L 183.398438 335.53125 Z M 242.382812 265.582031 " clip-rule="nonzero"/></clipPath><clipPath id="ffa93ce95e"><path d="M 242.382812 265.582031 L 490.078125 474.441406 L 431.09375 544.394531 L 183.398438 335.53125 Z M 242.382812 265.582031 " clip-rule="nonzero"/></clipPath></defs><g clip-path="url(#8913747136)"><g clip-path="url(#1820de9520)"><g clip-path="url(#167dc79927)"><path fill="#262626" d="M 244.605469 270.9375 C 244.328125 271.003906 244.148438 271.179688 244.0625 271.453125 C 243.085938 271.601562 242.320312 270.203125 241.246094 271.085938 C 238.179688 271.339844 237.382812 273.566406 236.957031 276.082031 C 235.785156 283.125 235.785156 290.214844 236.21875 297.3125 C 237.796875 322.71875 244.609375 346.628906 255.730469 369.574219 C 275.136719 409.640625 305.609375 438.613281 344.207031 459.582031 C 362.101562 469.308594 381.355469 475.722656 400.910156 481.246094 C 412.402344 484.492188 424.050781 487.035156 435.648438 489.863281 C 436.109375 489.78125 436.558594 489.691406 437.019531 489.609375 C 437.441406 489.933594 438.003906 490.171875 438.210938 490.597656 C 438.210938 490.597656 438.210938 490.597656 438.214844 490.617188 C 438.371094 490.953125 437.886719 491.171875 437.46875 491.070312 C 433.175781 492.941406 428.632812 493.847656 424.042969 494.507812 C 420.894531 494.964844 417.882812 495.636719 415.105469 497.21875 C 408.332031 498.140625 404.710938 502.195312 404.78125 508.433594 C 417.675781 512.890625 430.109375 510.183594 442.527344 506.394531 C 447.148438 504.988281 451.847656 503.902344 456.53125 502.738281 C 467.753906 499.964844 465.972656 499.730469 468.660156 490.71875 C 469.261719 488.703125 469.386719 486.582031 469.292969 484.460938 C 469.257812 483.679688 469.15625 482.964844 468.523438 482.433594 C 469.082031 480.09375 467.558594 478.777344 466.007812 477.566406 C 461.402344 473.964844 456.757812 470.425781 452.125 466.863281 C 451.621094 465.558594 450.515625 464.894531 449.375 464.277344 C 448.921875 462.957031 447.792969 462.300781 446.714844 461.609375 C 446.542969 460.621094 445.65625 460.183594 445.0625 459.527344 C 437.070312 450.609375 430.191406 440.917969 424.988281 430.082031 C 424.59375 429.265625 424.136719 428.488281 423.710938 427.6875 C 423.210938 426.734375 422.652344 425.652344 421.445312 425.855469 C 420.53125 426.011719 419.832031 427.097656 419.855469 427.890625 C 419.949219 431.386719 417.886719 434.371094 417.683594 437.757812 C 417.589844 439.265625 418.121094 440.683594 418.683594 442.117188 C 422.980469 453.191406 429.121094 463.199219 436.296875 472.605469 C 436.9375 473.445312 437.726562 474.203125 438.171875 475.144531 C 438.691406 476.242188 437.847656 476.757812 436.894531 477.03125 C 436.070312 476.148438 435.109375 475.96875 434.015625 476.410156 C 433.109375 475.753906 432.175781 475.1875 430.992188 475.710938 C 430.867188 475.433594 430.675781 475.382812 430.425781 475.546875 C 429.578125 474.898438 428.6875 474.425781 427.574219 474.855469 C 426.902344 474.535156 426.261719 474.121094 425.546875 473.929688 C 417.726562 471.757812 409.875 469.71875 402.082031 467.460938 C 395.007812 465.414062 388.003906 463.148438 380.976562 460.972656 C 379.1875 460.171875 377.4375 459.304688 375.632812 458.582031 C 358.09375 451.433594 341.675781 442.28125 326.671875 430.695312 C 321.316406 426.554688 316.089844 422.257812 310.808594 418.023438 C 310.289062 416.648438 309.097656 416.015625 307.910156 415.359375 C 307.445312 414.027344 306.320312 413.410156 305.195312 412.773438 C 304.84375 411.476562 303.71875 410.949219 302.734375 410.277344 C 302.582031 409.394531 301.980469 408.933594 301.207031 408.644531 C 301.128906 408.328125 300.9375 408.148438 300.609375 408.105469 C 300.425781 407.136719 299.5625 406.691406 298.992188 406.023438 C 296.199219 402.710938 292.828125 399.917969 290.441406 396.253906 C 289.933594 396.28125 288.871094 395.621094 289.617188 397.082031 C 290.109375 398.0625 289.960938 398.328125 289.589844 398.34375 C 289.265625 398.355469 288.773438 398.175781 288.382812 398.082031 C 279.894531 387.34375 272.800781 375.71875 266.46875 363.617188 C 265.984375 362.441406 265.492188 361.253906 265.007812 360.078125 C 262.121094 353.046875 259.222656 346.007812 256.324219 338.984375 C 256.410156 338.679688 256.386719 338.410156 256.273438 338.171875 C 256.191406 338.007812 256.078125 337.867188 255.921875 337.734375 C 256.058594 337.238281 255.914062 336.832031 255.519531 336.519531 C 255.671875 336.019531 255.527344 335.613281 255.117188 335.300781 C 255.289062 334.800781 255.144531 334.394531 254.722656 334.074219 C 254.894531 333.574219 254.773438 333.160156 254.347656 332.847656 C 254.535156 332.34375 254.40625 331.941406 253.980469 331.625 L 253.976562 331.609375 C 254.167969 331.125 254.046875 330.710938 253.628906 330.40625 L 253.617188 330.378906 C 253.53125 329.980469 253.421875 329.570312 253.285156 329.175781 L 253.273438 329.132812 C 253.460938 328.648438 253.359375 328.25 252.941406 327.925781 L 252.929688 327.886719 C 253.117188 327.402344 253.015625 327 252.597656 326.679688 L 252.585938 326.636719 C 252.585938 326.636719 252.582031 326.621094 252.582031 326.621094 C 252.582031 326.621094 252.585938 326.636719 252.585938 326.636719 C 252.789062 326.152344 252.679688 325.746094 252.257812 325.421875 L 252.25 325.398438 C 252.453125 324.914062 252.34375 324.503906 251.921875 324.183594 L 251.921875 324.167969 C 252.117188 323.671875 252.015625 323.257812 251.605469 322.925781 C 250.855469 319.046875 250.117188 315.179688 249.371094 311.300781 C 248.351562 309.40625 248.339844 307.277344 248.042969 305.226562 C 248.246094 305.082031 248.453125 305.003906 248.660156 304.960938 C 248.988281 304.890625 249.304688 304.921875 249.648438 305.074219 C 249.59375 303.503906 249.652344 301.921875 248.882812 300.472656 C 248.609375 300.054688 248.402344 299.613281 248.382812 299.09375 C 248.546875 299.550781 248.707031 300.011719 248.882812 300.472656 C 248.96875 299.964844 248.984375 299.476562 248.5 299.179688 C 248.890625 298.488281 248.816406 297.816406 248.453125 297.132812 C 248.714844 296.691406 248.714844 296.285156 248.316406 295.917969 C 248.460938 295.410156 248.480469 294.941406 248.085938 294.53125 C 248.195312 294.292969 248.21875 294.0625 248.085938 293.808594 C 248.300781 292.265625 248.191406 290.761719 247.714844 289.277344 C 247.808594 288.179688 247.9375 287.082031 247.457031 286.03125 C 247.773438 285.359375 247.570312 284.6875 247.429688 284.015625 C 247.808594 279.695312 247.394531 275.332031 248.652344 270.882812 C 247.050781 271.164062 245.851562 269.871094 244.605469 270.9375 Z M 429.972656 476.328125 C 429.964844 476.320312 429.964844 476.320312 429.957031 476.3125 C 429.949219 476.320312 429.957031 476.328125 429.957031 476.328125 C 429.949219 476.320312 429.945312 476.304688 429.945312 476.304688 C 429.945312 476.304688 429.957031 476.3125 429.957031 476.3125 C 429.964844 476.300781 429.972656 476.292969 429.96875 476.277344 C 429.980469 476.300781 429.972656 476.308594 429.972656 476.328125 Z M 249.898438 326.289062 C 249.90625 326.390625 249.914062 326.492188 249.925781 326.59375 C 249.914062 326.566406 249.902344 326.542969 249.894531 326.519531 C 249.867188 326.433594 249.84375 326.351562 249.828125 326.257812 C 249.835938 326.265625 249.863281 326.273438 249.898438 326.289062 Z M 256.269531 338.9375 C 256.261719 338.949219 256.253906 338.941406 256.246094 338.949219 C 256.210938 338.953125 256.179688 338.972656 256.144531 338.976562 L 256.027344 338.984375 L 256.253906 338.941406 C 256.261719 338.929688 256.253906 338.921875 256.261719 338.914062 C 256.253906 338.921875 256.261719 338.929688 256.269531 338.9375 Z M 249.449219 326.128906 C 249.574219 326.171875 249.695312 326.210938 249.800781 326.253906 C 249.824219 326.335938 249.851562 326.417969 249.875 326.503906 C 249.800781 326.332031 249.660156 326.199219 249.449219 326.128906 Z M 250.007812 327.070312 C 250.035156 327.171875 250.058594 327.269531 250.074219 327.363281 C 250.066406 327.371094 250.078125 327.378906 250.070312 327.386719 C 250.050781 327.277344 250.035156 327.171875 250.007812 327.070312 Z M 241.277344 278.4375 C 241.269531 278.429688 241.265625 278.414062 241.257812 278.40625 C 241.257812 278.40625 241.257812 278.386719 241.257812 278.386719 C 241.265625 278.378906 241.261719 278.363281 241.269531 278.351562 C 241.28125 278.378906 241.273438 278.402344 241.277344 278.4375 Z M 241.117188 280.359375 C 241.101562 280.375 241.085938 280.394531 241.097656 280.417969 C 241.113281 280.402344 241.109375 280.367188 241.117188 280.359375 Z M 247.839844 298.527344 C 247.753906 298.5 247.65625 298.484375 247.546875 298.484375 C 247.578125 298.433594 247.605469 298.378906 247.636719 298.324219 C 247.703125 298.394531 247.773438 298.457031 247.839844 298.527344 Z M 247.90625 295.117188 C 247.867188 294.960938 247.886719 294.789062 247.957031 294.613281 C 247.957031 294.613281 247.957031 294.613281 247.96875 294.621094 C 247.914062 294.792969 247.886719 294.957031 247.90625 295.117188 Z M 247.90625 295.117188 " fill-opacity="1" fill-rule="nonzero"/></g></g></g><g clip-path="url(#d37333a891)"><g clip-path="url(#8e8be4bf17)"><g clip-path="url(#ffa93ce95e)"><path fill="#262626" d="M 253.246094 329.109375 C 253.355469 329.519531 253.476562 329.917969 253.578125 330.316406 C 253.773438 329.824219 253.65625 329.425781 253.246094 329.109375 Z M 253.246094 329.109375 " fill-opacity="1" fill-rule="nonzero"/></g></g></g></svg>