<?xml version="1.0" encoding="UTF-8" standalone="no"?>
<svg
   width="100"
   zoomAndPan="magnify"
   viewBox="0 0 75 74.999999"
   height="100"
   preserveAspectRatio="xMidYMid meet"
   version="1.0"
   id="svg28"
   sodipodi:docname="Community.svg"
   inkscape:version="1.1.2 (0a00cf5339, 2022-02-04)"
   xmlns:inkscape="http://www.inkscape.org/namespaces/inkscape"
   xmlns:sodipodi="http://sodipodi.sourceforge.net/DTD/sodipodi-0.dtd"
   xmlns="http://www.w3.org/2000/svg"
   xmlns:svg="http://www.w3.org/2000/svg">
  <sodipodi:namedview
     id="namedview30"
     pagecolor="#ffffff"
     bordercolor="#666666"
     borderopacity="1.0"
     inkscape:pageshadow="2"
     inkscape:pageopacity="0.0"
     inkscape:pagecheckerboard="0"
     showgrid="false"
     inkscape:zoom="3.3888747"
     inkscape:cx="47.95102"
     inkscape:cy="77.164257"
     inkscape:window-width="1400"
     inkscape:window-height="868"
     inkscape:window-x="0"
     inkscape:window-y="0"
     inkscape:window-maximized="1"
     inkscape:current-layer="svg28" />
  <defs
     id="defs8">
    <clipPath
       id="3eb0c4b5ba">
      <path
         d="M 216.98047,199.73047 H 593.08203 V 580 H 216.98047 Z m 0,0"
         clip-rule="nonzero"
         id="path2" />
    </clipPath>
    <clipPath
       id="149e34d04e">
      <path
         d="m 280.15234,558 h 9.54688 v 22.73047 h -9.54688 z m 0,0"
         clip-rule="nonzero"
         id="path5" />
    </clipPath>
  </defs>
  <g
     clip-path="url(#3eb0c4b5ba)"
     id="g12"
     transform="matrix(0.19077187,0,0,0.19077187,-39.768351,-36.870852)"
     style="stroke:#262626;stroke-width:0;stroke-miterlimit:4;stroke-dasharray:none;fill:#262626">
    <path
       fill="#262626"
       d="m 583.55469,398.30859 c -0.94141,2.30469 -2.76172,4.14453 -5.0586,5.10157 l -3.59375,1.50781 -12.91015,-40.3711 -0.17969,-0.33984 c -2.17188,-4.19141 -6.45313,-6.86719 -11.16797,-6.97266 -6.49219,-0.13671 -12.59766,3.0625 -16.17969,8.48047 l -0.0781,0.125 c -3.6836,6.45703 -5.07031,13.97266 -3.9375,21.32032 1.11719,7.09375 4.14844,25.47656 5.3789,32.91015 -1.6914,0.96875 -3.3164,2.04688 -4.86328,3.22656 -0.004,0.004 -0.0117,0.008 -0.0156,0.008 l -75.72656,31.68359 -8.75,3.65234 -5.03125,2.10938 c -0.19922,-1.15234 -0.53907,-2.27344 -1.02344,-3.34375 l -19.59766,-43.81641 c 7.23047,0.5586 15.60938,0.16407 21.90625,-3.17578 4.5625,-2.42578 8.46485,-5.92969 11.375,-10.19922 0.32422,-0.47656 0.64063,-0.96484 0.9375,-1.45703 1.69531,-2.79297 2.96094,-5.83203 3.75,-9.0039 0.0391,-0.13672 0.0742,-0.28516 0.0977,-0.42579 0.008,-0.0234 0.0117,-0.043 0.0117,-0.0664 1.73047,-6.02735 1.64062,-12.4336 -0.25391,-18.41016 -5.32812,-16.96484 -23.39453,-26.40234 -40.35156,-21.07031 -8.16797,2.56641 -14.97266,8.28125 -18.91797,15.88281 -1.53125,-3.41015 -3.30469,-7.39453 -5.20313,-11.63672 0,-0.004 -0.004,-0.004 -0.004,-0.0117 -1.7461,-4.17968 -3.73047,-8.55468 -5.73828,-12.84375 -3.63672,-8.14062 -7.1875,-16.07812 -9.75,-21.80468 -0.50782,-1.14063 -1.1836,-2.19922 -2.00391,-3.14453 l 58.10156,-23.98829 c 2.39063,-1.00781 3.89063,-3.40625 3.75391,-5.99609 -0.11328,-2.57422 -1.84375,-4.78906 -4.3125,-5.51953 -12.34375,-3.77734 -19.28906,-16.85156 -15.51563,-29.20313 3.77344,-12.35156 16.83985,-19.30078 29.1836,-15.52734 5.90234,1.80469 10.85156,5.875 13.76562,11.31641 3.42578,6.46875 2.28516,17.54297 1.64063,22.01562 -0.53516,3.65235 2,7.05078 5.65625,7.58594 1.1914,0.17187 2.41015,0.0195 3.52344,-0.44531 l 53.74609,-22.48047 57.30469,137.14062 c 0.97265,2.29688 0.98437,4.88672 0.0312,7.1875 z m -22.82813,76.14844 c -0.34375,1.33984 -0.90625,2.60938 -1.66797,3.75391 l -0.082,0.1289 c -0.0273,0.043 -2.22656,3.63282 -4.79687,7.61328 -0.29297,0.45704 -0.59766,0.91407 -0.89844,1.375 l -87.65234,0.082 c -0.25,-0.25 -0.49219,-0.5 -0.72657,-0.75391 h -0.0117 c -5.6914,-6.03906 -9.04687,-13.91016 -9.46484,-22.19922 l 63.58203,-26.60156 c -1.36719,2.53125 -2.6875,5.14062 -3.93359,7.79687 l 7.97656,3.74219 c 1.625,-3.46094 3.375,-6.83984 5.19922,-10.04687 1.87109,-3.21875 4.32422,-6.0625 7.23828,-8.38282 h 0.008 c 2.10157,-1.73437 4.41016,-3.19531 6.875,-4.34375 l 3.25391,-1.33203 -0.57031,-3.46875 c -0.008,-0.0664 -0.27344,-1.64453 -0.6836,-4.13672 -1.3164,-7.9375 -4.14453,-25.11328 -5.21093,-31.89062 -0.83594,-5.28125 0.13671,-10.69922 2.7539,-15.35938 1.90235,-2.73437 5.01172,-4.37109 8.33985,-4.39062 1.46484,-0.0391 2.83593,0.71484 3.58984,1.97265 l 12.89844,40.3125 2.69922,8.42579 3.68359,11.51953 z m -2.76953,21.70313 0.31641,22.17968 c -0.4961,0.34766 -1.09375,0.52344 -1.69922,0.5 l -95.45313,0.75391 c -0.625,0.043 -1.2539,-0.13672 -1.76172,-0.50781 l -0.32421,-22.83985 z M 429.64844,468.16797 c -12.06641,5.41015 -32.48828,14.55078 -45.0586,20.1875 4.40625,-17.23047 -5.98437,-34.77344 -23.20312,-39.1836 -17.22266,-4.41015 -34.75781,5.98047 -39.16406,23.21485 -1.53907,6.03125 -1.30079,12.38281 0.6875,18.28515 2.48437,7.3125 9.13671,13.79688 15.22656,18.47657 l -49.82031,22.30468 -61.69532,-137.92578 c -2.11718,-4.74218 0.004,-10.29687 4.73828,-12.42187 l 3.88672,-1.74219 14.26172,44.58203 0.17969,0.34766 c 2.17187,4.1914 6.45703,6.86328 11.17578,6.97265 0.23828,0.008 0.47266,0.0117 0.70703,0.0117 6.24219,-0.10937 12.02344,-3.29297 15.46875,-8.5 l 0.0742,-0.125 c 3.69141,-6.45312 5.07813,-13.96875 3.9375,-21.3125 -1.11328,-7.09375 -4.14453,-25.48437 -5.37891,-32.91406 5.86719,-3.30469 10.83594,-7.98828 14.48047,-13.64844 l 65.96485,-29.53515 8.59375,-3.85157 0.82422,-0.36718 c 0.49218,-0.22657 1.02734,-0.33985 1.57031,-0.33985 0.47265,0 0.9414,0.0859 1.38281,0.25782 0.95703,0.36328 1.73047,1.09375 2.14844,2.03125 3.88281,8.66406 10.01172,22.3789 15.30469,34.21875 0.004,0.0273 0.0195,0.0508 0.0351,0.0781 3.07813,7.37891 5.86719,14.07813 7.69141,18.44922 1.30859,3.13281 4.90625,4.60937 8.03515,3.30078 1.6836,-0.70312 2.96485,-2.11719 3.50391,-3.85937 2.94922,-12.57032 15.52734,-20.36719 28.08984,-17.41797 12.56641,2.95703 20.35547,15.53906 17.40625,28.10937 -1.49218,6.33594 -5.54687,11.76172 -11.20312,14.98047 -6.375,3.58594 -17.49609,2.71875 -21.97656,2.18359 -2.38672,-0.28906 -4.7461,0.73047 -6.17578,2.66797 -0.0352,0.0391 -0.0625,0.0859 -0.0899,0.12891 -1.35547,1.92969 -1.58984,4.42187 -0.6289,6.57422 l 21.74609,48.625 c 1.21875,2.72656 0,5.92578 -2.72656,7.15625 z m -78.87891,-175.0586 h -0.11719 l -0.0859,-0.14062 -95.25,0.76562 c -0.625,0.0469 -1.25391,-0.13671 -1.76172,-0.51562 l -0.0117,-0.88281 -0.3125,-22.17188 c 0.5,-0.35156 1.09375,-0.52734 1.69922,-0.5 l 95.45312,-0.76172 c 0.62891,-0.0391 1.25391,0.14063 1.76172,0.51563 l 0.32422,23.1914 c -0.49609,0.34766 -1.08984,0.52344 -1.69531,0.5 z m -54.93359,49.45704 -11.8711,5.32031 c -0.24218,0.42187 -0.47656,0.84375 -0.71093,1.2539 -5.03907,8.85938 -14.05079,12.69922 -14.125,12.73047 l -3.25391,1.33985 0.375,2.26953 0.19922,1.19922 c 0.0469,0.26953 4.5,27.11718 5.89062,36.02343 0.83985,5.28125 -0.1289,10.69141 -2.75,15.35547 -1.89453,2.73828 -5.00781,4.38282 -8.33593,4.39453 -1.46485,0.043 -2.84375,-0.71093 -3.60157,-1.96875 l -14.3125,-44.74609 -2.70312,-8.45703 -2.26563,-7.0625 12.40235,-46.17969 c 0.34375,-1.33594 0.91015,-2.60547 1.67187,-3.7539 l 0.0742,-0.125 c 0.0312,-0.0469 2.23438,-3.64063 4.80469,-7.6211 l 89.26562,-0.70312 h 0.0117 c 3.82813,4.0625 6.625,8.98047 8.17188,14.34375 z m 295.82422,45.15234 -60.71094,-145.27734 -58.48828,24.46484 c 0.67968,-6.87891 0.72656,-16.66797 -3.01953,-23.73828 -8.38282,-15.6875 -27.88282,-21.60156 -43.5586,-13.21875 -15.67578,8.38672 -21.58984,27.89844 -13.21094,43.58594 2.9336,5.48828 7.39454,10.00781 12.84375,13.01953 l -61.71875,25.75 c -0.30078,0.0859 -0.60156,0.17187 -0.89843,0.27734 -1.39844,-4.41406 -3.49219,-8.57812 -6.20313,-12.33203 0.77735,-0.4375 1.48828,-0.97656 2.11719,-1.61328 1.55469,-1.51953 2.44531,-3.60156 2.46484,-5.78516 v -0.10937 l -0.33203,-23.69141 c 0,-0.16406 -0.0195,-0.32422 -0.0351,-0.48828 l 5.02734,-0.0391 c 2.43359,-0.0195 4.39062,-2.00782 4.375,-4.44532 0,-0.008 -0.004,-0.0117 -0.004,-0.0195 l -0.82812,-64.32812 -8.8125,0.11719 0.77344,59.89843 -117.75391,0.94141 -0.76953,-60.95703 -8.81641,0.11328 0.83203,65.34375 c 0.0273,2.41406 1.99219,4.35156 4.40625,4.35156 h 0.0352 l 5.05859,-0.0391 c -0.0117,0.17578 -0.0234,0.34766 -0.0195,0.52734 l 0.33594,23.69141 c 0.0703,2.63672 1.37109,5.08594 3.51953,6.61328 -1.69531,2.67188 -2.98437,4.76563 -3.22656,5.16016 -1.27735,1.94922 -2.22266,4.09375 -2.80469,6.35156 l -0.13672,0.53125 -0.0977,-0.0273 -12.8086,48.09765 3.34766,10.46485 -4.78125,2.13671 c -9.17969,4.10547 -13.29297,14.87891 -9.19141,24.0625 0.004,0.008 0.008,0.0117 0.0117,0.0156 l 65.28906,145.98437 61.22266,-27.41015 c 3.36719,-1.51563 4.86719,-5.47656 3.35547,-8.84766 -0.4961,-1.09375 -1.27344,-2.03906 -2.26172,-2.73047 -7.84375,-5.51172 -13.28906,-11.4414 -14.93359,-16.28515 -4.10547,-12.24219 2.47656,-25.5 14.71093,-29.60938 12.23438,-4.11328 25.48438,2.47656 29.59375,14.71485 1.95703,5.82812 1.54297,12.1914 -1.16015,17.71875 -1.51172,3.03125 -0.27735,6.72265 2.75781,8.23828 1.64453,0.82031 3.57422,0.85937 5.25391,0.10937 10.96484,-4.92578 36.66406,-16.4414 50.83984,-22.79297 2.39844,-1.0664 4.45312,-2.78906 5.92969,-4.96093 l 7.71093,-3.22657 c 0.88672,7.30078 3.60938,14.25391 7.91797,20.21094 -0.77734,0.44141 -1.48828,0.98828 -2.12109,1.61719 -1.58594,1.55078 -2.47656,3.67578 -2.46875,5.89453 l 0.33203,23.69922 c 0,0.16015 0.0234,0.3164 0.0352,0.47656 l -5.01953,0.043 c -2.4336,0.0195 -4.39454,2.00781 -4.375,4.44531 0,0.008 0,0.0195 0,0.0274 l 0.83203,55.51171 8.8125,-0.1289 -0.76172,-51.07031 117.75,-0.94532 0.76172,52.14453 8.8164,-0.1289 -0.82812,-56.52344 c -0.0352,-2.41016 -2,-4.34766 -4.40625,-4.34766 h -0.0352 l -5.0625,0.0391 c 0.008,-0.17188 0.0234,-0.34375 0.0195,-0.51172 l -0.33203,-23.69531 c -0.0664,-2.63672 -1.37109,-5.08985 -3.52344,-6.60938 1.69532,-2.67969 2.98438,-4.77344 3.22266,-5.16406 1.28125,-1.94922 2.23047,-4.10156 2.80859,-6.35938 l 0.13282,-0.53125 0.10547,0.0312 12.80468,-48.10156 -4.70703,-14.71094 4.28906,-1.78906 c 9.26954,-3.875 13.64844,-14.53125 9.78125,-23.80469 -0.004,-0.008 -0.008,-0.0156 -0.0117,-0.0234 v -0.004"
       fill-opacity="1"
       fill-rule="nonzero"
       id="path10"
       style="stroke:#262626;stroke-width:0;stroke-miterlimit:4;stroke-dasharray:none;fill:#262626" />
  </g>
  <path
     fill="#262626"
     d="m 35.782313,36.001014 1.494129,-0.771272 1.941245,3.769229 -1.49413,0.771286 -1.941244,-3.769243"
     fill-opacity="1"
     fill-rule="nonzero"
     id="path14"
     style="stroke-width:0.190772" />
  <path
     fill="#262626"
     d="m 35.781935,38.998971 1.941244,-3.769229 1.494885,0.771272 -1.941258,3.769243 -1.494871,-0.771286"
     fill-opacity="1"
     fill-rule="nonzero"
     id="path16"
     style="stroke-width:0.190772" />
  <g
     clip-path="url(#149e34d04e)"
     id="g20"
     transform="matrix(0.19077187,0,0,0.19077187,-16.862904,-71.147934)">
    <path
       fill="#262626"
       d="m 280.27734,580.52344 0.5586,-22.21875 8.8125,0.22265 -0.5586,22.21875 -8.8125,-0.22265"
       fill-opacity="1"
       fill-rule="nonzero"
       id="path18" />
  </g>
  <path
     fill="#262626"
     d="m 35.781558,36.001014 1.494886,-0.770531 1.941998,3.768488 -1.494885,0.770545 -1.941999,-3.768502"
     fill-opacity="1"
     fill-rule="nonzero"
     id="path22"
     style="stroke-width:0.190772" />
  <path
     fill="#262626"
     d="m 35.782306,38.998601 1.941257,-3.768488 1.49413,0.771273 -1.941258,3.768501 -1.494129,-0.771286"
     fill-opacity="1"
     fill-rule="nonzero"
     id="path24"
     style="stroke-width:0.190772" />
  <path
     fill="#262626"
     d="m 36.606142,39.598118 0.106543,-4.238717 1.681173,0.04248 -0.106543,4.238717 -1.681173,-0.04248"
     fill-opacity="1"
     fill-rule="nonzero"
     id="path26"
     style="stroke-width:0.190772" />
</svg>
