<?xml version="1.0" encoding="UTF-8" standalone="no"?>
<svg
   width="100"
   zoomAndPan="magnify"
   viewBox="0 0 75 74.999999"
   height="100"
   preserveAspectRatio="xMidYMid meet"
   version="1.0"
   id="svg46"
   sodipodi:docname="Innovation.svg"
   inkscape:version="1.1.2 (0a00cf5339, 2022-02-04)"
   xmlns:inkscape="http://www.inkscape.org/namespaces/inkscape"
   xmlns:sodipodi="http://sodipodi.sourceforge.net/DTD/sodipodi-0.dtd"
   xmlns="http://www.w3.org/2000/svg"
   xmlns:svg="http://www.w3.org/2000/svg">
  <sodipodi:namedview
     id="namedview48"
     pagecolor="#ffffff"
     bordercolor="#666666"
     borderopacity="1.0"
     inkscape:pageshadow="2"
     inkscape:pageopacity="0.0"
     inkscape:pagecheckerboard="0"
     showgrid="false"
     inkscape:zoom="3.3888747"
     inkscape:cx="44.410022"
     inkscape:cy="84.836421"
     inkscape:window-width="1400"
     inkscape:window-height="868"
     inkscape:window-x="0"
     inkscape:window-y="0"
     inkscape:window-maximized="1"
     inkscape:current-layer="svg46" />
  <defs
     id="defs14">
    <clipPath
       id="fbe4056924">
      <path
         d="m 402,202.11719 h 6 V 243 h -6 z m 0,0"
         clip-rule="nonzero"
         id="path2" />
    </clipPath>
    <clipPath
       id="2a15ab9f6f">
      <path
         d="M 223.59766,380 H 264 v 7 h -40.40234 z m 0,0"
         clip-rule="nonzero"
         id="path5" />
    </clipPath>
    <clipPath
       id="852f53d5df">
      <path
         d="m 546,380 h 40.59766 v 7 H 546 Z m 0,0"
         clip-rule="nonzero"
         id="path8" />
    </clipPath>
    <clipPath
       id="29b093caea">
      <path
         d="M 324.42969,288.54687 H 485.76172 V 565.02734 H 324.42969 Z m 0,0"
         clip-rule="nonzero"
         id="path11" />
    </clipPath>
  </defs>
  <g
     id="g880"
     transform="translate(-3.8776,-2.0156014)"
     style="stroke-width:0;stroke-miterlimit:4;stroke-dasharray:none;fill:#262626;stroke:#262626">
    <g
       clip-path="url(#fbe4056924)"
       id="g18"
       transform="matrix(0.18704401,0,0,0.18704401,-34.393491,-32.229285)"
       style="stroke-width:0;stroke-miterlimit:4;stroke-dasharray:none;fill:#262626;stroke:#262626">
      <path
         fill="#262626"
         d="m 405.09766,242.44922 c 1.58593,0 2.8789,-1.28125 2.8789,-2.87891 V 205 c 0,-1.58984 -1.29297,-2.88281 -2.8789,-2.88281 -1.58985,0 -2.88282,1.29297 -2.88282,2.88281 v 34.57031 c 0,1.59766 1.29297,2.87891 2.88282,2.87891"
         fill-opacity="1"
         fill-rule="nonzero"
         id="path16"
         style="stroke-width:0;stroke-miterlimit:4;stroke-dasharray:none;fill:#262626;stroke:#262626" />
    </g>
    <path
       fill="#262626"
       d="m 27.905313,16.729491 c 0.09281,0 0.185583,-0.02265 0.269609,-0.07161 0.257184,-0.149053 0.345593,-0.477839 0.198007,-0.736491 l -3.233088,-5.598895 c -0.149778,-0.259377 -0.480031,-0.3477851 -0.736482,-0.198007 -0.257185,0.149053 -0.345594,0.47784 -0.198007,0.736491 l 3.233087,5.599629 c 0.100819,0.172425 0.282024,0.268876 0.466874,0.268876"
       fill-opacity="1"
       fill-rule="nonzero"
       id="path20"
       style="stroke-width:0;stroke-miterlimit:4;stroke-dasharray:none;fill:#262626;stroke:#262626" />
    <path
       fill="#262626"
       d="M 18.313466,25.587048 12.712371,22.35396 c -0.257185,-0.149053 -0.585239,-0.06061 -0.735025,0.195815 -0.149045,0.258643 -0.06061,0.587429 0.195815,0.736482 l 5.601096,3.233822 c 0.08475,0.04823 0.176809,0.07161 0.2696,0.07161 0.185584,0 0.366051,-0.09718 0.467616,-0.269609 0.146853,-0.257185 0.05841,-0.587437 -0.198007,-0.735024"
       fill-opacity="1"
       fill-rule="nonzero"
       id="path22"
       style="stroke-width:0;stroke-miterlimit:4;stroke-dasharray:none;fill:#262626;stroke:#262626" />
    <path
       fill="#262626"
       d="m 70.579114,55.763968 -5.598896,-3.233821 c -0.259376,-0.149045 -0.587437,-0.06061 -0.737215,0.195816 -0.146862,0.259375 -0.0585,0.587437 0.197998,0.737216 l 5.598904,3.233086 c 0.08694,0.04823 0.179009,0.07161 0.269601,0.07161 0.187775,0 0.368249,-0.09499 0.467615,-0.269608 0.149053,-0.256452 0.06061,-0.58743 -0.198007,-0.734292"
       fill-opacity="1"
       fill-rule="nonzero"
       id="path24"
       style="stroke-width:0;stroke-miterlimit:4;stroke-dasharray:none;fill:#262626;stroke:#262626" />
    <g
       clip-path="url(#2a15ab9f6f)"
       id="g28"
       transform="matrix(0.18704401,0,0,0.18704401,-34.393491,-32.229285)"
       style="stroke-width:0;stroke-miterlimit:4;stroke-dasharray:none;fill:#262626;stroke:#262626">
      <path
         fill="#262626"
         d="m 263.92969,383.61719 c 0,-1.58594 -1.29297,-2.87891 -2.88282,-2.87891 h -34.57031 c -1.58594,0 -2.8789,1.29297 -2.8789,2.87891 0,1.59765 1.29296,2.88281 2.8789,2.88281 h 34.57031 c 1.58985,0 2.88282,-1.28516 2.88282,-2.88281"
         fill-opacity="1"
         fill-rule="nonzero"
         id="path26"
         style="stroke-width:0;stroke-miterlimit:4;stroke-dasharray:none;fill:#262626;stroke:#262626" />
    </g>
    <g
       clip-path="url(#852f53d5df)"
       id="g32"
       transform="matrix(0.18704401,0,0,0.18704401,-34.393491,-32.229285)"
       style="stroke-width:0;stroke-miterlimit:4;stroke-dasharray:none;fill:#262626;stroke:#262626">
      <path
         fill="#262626"
         d="m 583.71484,380.73828 h -34.57031 c -1.58594,0 -2.88281,1.29297 -2.88281,2.87891 0,1.59765 1.29687,2.88281 2.88281,2.88281 h 34.57031 c 1.58594,0 2.88282,-1.28516 2.88282,-2.88281 0,-1.58594 -1.29688,-2.87891 -2.88282,-2.87891"
         fill-opacity="1"
         fill-rule="nonzero"
         id="path30"
         style="stroke-width:0;stroke-miterlimit:4;stroke-dasharray:none;fill:#262626;stroke:#262626" />
    </g>
    <path
       fill="#262626"
       d="m 17.774257,52.530147 -5.601096,3.233821 c -0.256451,0.146861 -0.34486,0.477839 -0.195815,0.73429 0.09937,0.174626 0.279841,0.269609 0.467615,0.269609 0.0906,0 0.182659,-0.02338 0.26741,-0.07161 l 5.601095,-3.233087 c 0.256452,-0.149778 0.34486,-0.477839 0.198007,-0.737216 -0.149787,-0.256452 -0.480031,-0.34486 -0.737216,-0.195815"
       fill-opacity="1"
       fill-rule="nonzero"
       id="path34"
       style="stroke-width:0;stroke-miterlimit:4;stroke-dasharray:none;fill:#262626;stroke:#262626" />
    <path
       fill="#262626"
       d="m 64.71061,26.59168 c 0.09279,0 0.184849,-0.02338 0.269608,-0.07161 l 5.598896,-3.23382 c 0.258652,-0.149053 0.34706,-0.477841 0.198007,-0.736483 -0.149786,-0.25646 -0.477839,-0.344869 -0.737216,-0.195816 l -5.598904,3.233088 c -0.256451,0.147587 -0.34486,0.47784 -0.197998,0.735024 0.101555,0.172435 0.282025,0.269609 0.467607,0.269609"
       fill-opacity="1"
       fill-rule="nonzero"
       id="path36"
       style="stroke-width:0;stroke-miterlimit:4;stroke-dasharray:none;fill:#262626;stroke:#262626" />
    <path
       fill="#262626"
       d="m 58.351842,10.124496 c -0.259376,-0.1497779 -0.587429,-0.06135 -0.737216,0.198007 l -3.233086,5.598896 c -0.147587,0.258651 -0.05914,0.587437 0.198006,0.73649 0.08402,0.04897 0.176817,0.07161 0.269608,0.07161 0.184851,0 0.366051,-0.09644 0.466875,-0.268876 l 3.233086,-5.599628 c 0.147595,-0.258651 0.05914,-0.587438 -0.197273,-0.736491"
       fill-opacity="1"
       fill-rule="nonzero"
       id="path38"
       style="stroke-width:0;stroke-miterlimit:4;stroke-dasharray:none;fill:#262626;stroke:#262626" />
    <g
       clip-path="url(#29b093caea)"
       id="g42"
       transform="matrix(0.18704401,0,0,0.18704401,-34.393491,-32.229285)"
       style="stroke-width:0;stroke-miterlimit:4;stroke-dasharray:none;fill:#262626;stroke:#262626">
      <path
         fill="#262626"
         d="m 465.08984,421.05859 c -0.51953,0.71094 -4.52343,6.03125 -7.21484,8.96875 -15.47266,19.89844 -22.94531,35.07813 -23.86719,48.66016 h -13.58594 l 4.77344,-45.31641 17.08203,-37.01562 c 0.0117,-0.0195 0.0117,-0.043 0.0234,-0.0664 0.0898,-0.21484 0.11328,-0.4375 0.15625,-0.66406 0.0234,-0.14453 0.0781,-0.28125 0.0781,-0.42578 0,-0.19141 -0.0547,-0.38281 -0.0899,-0.57422 -0.0312,-0.17188 -0.0312,-0.35156 -0.10156,-0.50781 -0.0547,-0.15625 -0.16797,-0.28125 -0.24609,-0.41797 -0.11329,-0.19141 -0.20313,-0.38281 -0.35938,-0.53906 -0.0117,-0.0117 -0.0117,-0.0352 -0.0352,-0.0547 -0.12109,-0.125 -0.28125,-0.17969 -0.42578,-0.28125 -0.13672,-0.0899 -0.25,-0.22656 -0.40625,-0.29297 -0.0234,-0.0117 -0.043,-0.0117 -0.0547,-0.0117 -0.20313,-0.0898 -0.42969,-0.11328 -0.64454,-0.15625 -0.15625,-0.0234 -0.30078,-0.0898 -0.46093,-0.0898 -0.17969,0 -0.35938,0.0547 -0.53907,0.0898 -0.17968,0.0312 -0.35937,0.0312 -0.53906,0.10156 -0.13672,0.0547 -0.25781,0.16797 -0.39453,0.23438 -0.19141,0.11328 -0.39453,0.21484 -0.55078,0.37109 -0.0234,0.0234 -0.0469,0.0234 -0.0586,0.0352 l -3.72266,3.72265 -3.72656,-3.71093 c 0,0 0,-0.0117 0,-0.0117 -0.5625,-0.5625 -1.30469,-0.84375 -2.04688,-0.84375 -0.73047,0 -1.47656,0.28125 -2.03906,0.84375 l -3.72266,3.72265 -3.72656,-3.71093 c 0,0 0,-0.0117 0,-0.0117 -0.5625,-0.5625 -1.30469,-0.84375 -2.03516,-0.84375 -0.74218,0 -1.47656,0.28125 -2.03906,0.84375 0,0 0,0.0117 -0.0117,0.0117 l -3.72265,3.71093 -3.60157,-3.60156 c -0.0351,-0.0312 -0.0469,-0.0781 -0.0781,-0.12109 -0.57422,-0.5625 -1.31641,-0.84375 -2.05859,-0.83203 -0.7461,-0.0117 -1.48829,0.26953 -2.0625,0.83203 -0.0312,0.043 -0.043,0.0898 -0.0781,0.12109 l -3.60156,3.60156 -3.73438,-3.72265 c -0.5625,-0.5625 -1.29687,-0.84375 -2.03906,-0.84375 -0.74219,0 -1.47266,0.28125 -2.03516,0.84375 0,0 0,0.0117 0,0.0117 l -3.72656,3.71093 -3.72265,-3.71093 c 0,0 0,-0.0117 0,-0.0117 -0.5625,-0.5625 -1.3086,-0.84375 -2.03907,-0.84375 -0.74218,0 -1.48437,0.28125 -2.04687,0.84375 0,0 0,0.0117 0,0.0117 l -3.72656,3.71093 -3.72266,-3.72265 c -0.0117,-0.0117 -0.0352,-0.0117 -0.0586,-0.0352 -0.15625,-0.15625 -0.35938,-0.25781 -0.5625,-0.37109 -0.1211,-0.0781 -0.2461,-0.17969 -0.38282,-0.23438 -0.16797,-0.0703 -0.35937,-0.0703 -0.53906,-0.10156 -0.17969,-0.0352 -0.35937,-0.0898 -0.53906,-0.0898 -0.16016,0 -0.29297,0.0664 -0.45313,0.0898 -0.21093,0.0312 -0.4375,0.0664 -0.65234,0.15625 -0.008,0 -0.0312,0 -0.0547,0.0117 -0.15625,0.0664 -0.26953,0.20312 -0.40625,0.29297 -0.14453,0.10156 -0.30469,0.15625 -0.42578,0.28125 -0.0234,0.0195 -0.0234,0.043 -0.0352,0.0547 -0.15625,0.15625 -0.24609,0.34765 -0.35937,0.53906 -0.0781,0.13672 -0.19141,0.26172 -0.24609,0.41797 -0.0703,0.15625 -0.0703,0.33593 -0.10157,0.50781 -0.0351,0.19141 -0.0898,0.37109 -0.0898,0.57422 0,0.14453 0.0547,0.28125 0.0781,0.4375 0.043,0.21484 0.0664,0.4375 0.15625,0.65234 0.0117,0.0234 0.0117,0.0469 0.0234,0.0664 l 17.08203,37.01562 4.77344,45.31641 h -13.59766 c -1.02343,-13.51563 -9.08984,-30.125 -23.64062,-48.44531 -2.46484,-2.63282 -6.26953,-7.58594 -7.36328,-9.02735 l -0.15625,-0.22265 c -9.7461,-13.875 -14.86719,-30.29688 -14.82031,-47.48047 0.11328,-43.67578 33.71484,-79.20313 74.91406,-79.20313 20.15625,0.043 39.03125,8.38282 53.16406,23.45313 14.06641,15.02344 21.78906,34.96484 21.73047,56.13281 -0.043,17.11719 -5.21094,33.44531 -14.91016,47.16406 z m -74.41015,11.24219 c -0.0352,-0.31641 -0.125,-0.61719 -0.25782,-0.91016 l -12.88671,-27.92187 c 0.28125,-0.13281 0.5625,-0.29297 0.78906,-0.52734 l 3.73437,-3.72657 3.72657,3.72657 c 0.5625,0.5625 1.29296,0.84375 2.03515,0.84375 0.74219,0 1.47656,-0.28125 2.03906,-0.84375 l 3.72266,-3.72657 3.72656,3.72657 c 0.5625,0.5625 1.30469,0.84375 2.04688,0.84375 0.73437,0 1.47656,-0.28125 2.03906,-0.84375 l 3.70313,-3.70313 3.69921,3.70313 c 0.5625,0.5625 1.3086,0.84375 2.03907,0.84375 0.74218,0 1.48437,-0.28125 2.04687,-0.84375 l 3.72656,-3.72657 3.72266,3.72657 c 0.5625,0.5625 1.30859,0.84375 2.03906,0.84375 0.74219,0 1.47266,-0.28125 2.03516,-0.84375 l 3.72656,-3.72657 3.73438,3.72657 c 0.22656,0.23437 0.50781,0.39453 0.78906,0.52734 l -12.88672,27.92187 c -0.13281,0.29297 -0.22266,0.59375 -0.25781,0.91016 l -4.88281,46.38672 H 395.5625 Z m 54.75,57.92188 c 0,3.17578 -2.98438,5.7539 -6.65235,5.7539 h -67.36328 c -3.66797,0 -6.65234,-2.57812 -6.65234,-5.7539 0,-3.1836 2.98437,-5.77344 6.65234,-5.77344 h 67.36328 c 3.66797,0 6.65235,2.58984 6.65235,5.77344 z M 376.28516,507.5 v -5.76172 h 57.62109 V 507.5 Z m 57.62109,11.52344 h -57.62109 v -5.76172 h 57.62109 z m 0,11.52343 h -57.62109 v -5.76171 h 57.62109 z m 0,11.52344 h -57.62109 v -5.76172 h 57.62109 z m -18.76172,14.6875 -10.04687,2.50781 c -2.01563,-0.49609 -7.92579,-1.98046 -10.05079,-2.50781 l -8.08203,-8.08203 c -0.10937,-0.11328 -0.25781,-0.15625 -0.38281,-0.24609 -0.12109,-0.0899 -0.22266,-0.21485 -0.37109,-0.29297 l -0.58594,-0.29297 h 38.94141 l -0.59766,0.29297 c -0.13672,0.0781 -0.23828,0.20312 -0.37109,0.29297 -0.11329,0.0898 -0.25782,0.13281 -0.3711,0.24609 z M 405.10547,288.54687 c -44.3711,0 -80.5625,38.10547 -80.67578,84.94141 -0.0586,18.37891 5.43359,35.95703 15.8789,50.83203 l 0.25782,0.36328 c 1.47656,1.9336 5.17578,6.73828 7.60937,9.31641 16.67578,21.03516 21.44922,35.62891 22.21484,44.78906 -6.35937,0.4961 -11.39062,5.40235 -11.39062,11.4336 0,6.0664 5.09766,10.99609 11.52344,11.43359 V 507.5 h -2.87891 c -1.58594,0 -2.88281,1.29297 -2.88281,2.87891 0,1.59765 1.29687,2.88281 2.88281,2.88281 h 2.87891 v 5.76172 h -2.87891 c -1.58594,0 -2.88281,1.29297 -2.88281,2.8789 0,1.59766 1.29687,2.88282 2.88281,2.88282 h 2.87891 v 5.76171 h -2.87891 c -1.58594,0 -2.88281,1.29297 -2.88281,2.87891 0,1.59766 1.29687,2.88281 2.88281,2.88281 h 2.87891 v 8.64063 c 0,0.0586 0.0234,0.0898 0.0351,0.14844 0.0117,0.26953 0.0664,0.52734 0.15625,0.77734 0.0234,0.0781 0.0352,0.16797 0.0703,0.23437 0.13281,0.32813 0.32421,0.6211 0.58203,0.87891 0.0117,0.0117 0.0234,0.0117 0.0234,0.0234 0.21485,0.19922 0.44922,0.39062 0.73047,0.52734 l 11.09766,5.54688 8.31641,8.30468 c 0.37109,0.375 0.83203,0.63282 1.33984,0.76563 9.00391,2.25391 11.73828,2.9375 12.90625,2.83594 l 0.0117,0.0351 11.52344,-2.87109 c 0.50781,-0.13281 0.96875,-0.39063 1.33984,-0.76563 l 8.31641,-8.30468 11.09765,-5.54688 c 0.26953,-0.13672 0.50391,-0.32812 0.71875,-0.51562 0.0117,-0.0117 0.0234,-0.0234 0.0352,-0.0352 0.25781,-0.25781 0.44922,-0.55078 0.58594,-0.87891 0.0312,-0.0664 0.043,-0.14453 0.0664,-0.23437 0.0899,-0.25 0.14453,-0.50781 0.15625,-0.78906 0.0117,-0.0469 0.0352,-0.0781 0.0352,-0.13672 v -8.64063 h 2.8789 c 1.58985,0 2.88282,-1.28515 2.88282,-2.88281 0,-1.58594 -1.29297,-2.87891 -2.88282,-2.87891 h -2.8789 v -5.76171 h 2.8789 c 1.58985,0 2.88282,-1.28516 2.88282,-2.88282 0,-1.58593 -1.29297,-2.8789 -2.88282,-2.8789 h -2.8789 v -5.76172 h 2.8789 c 1.58985,0 2.88282,-1.28516 2.88282,-2.88281 0,-1.58594 -1.29297,-2.87891 -2.88282,-2.87891 h -2.8789 v -5.84375 c 6.42578,-0.4375 11.52344,-5.36719 11.52344,-11.43359 0,-6.04297 -5.04297,-10.94922 -11.41016,-11.4336 0.93359,-12.30859 8.01172,-26.41015 22.49609,-45.03515 2.72266,-2.97266 6.82813,-8.41797 7.49219,-9.33985 10.42188,-14.72265 15.94922,-32.1875 15.99219,-50.49609 0.0586,-22.65625 -8.21485,-43.99219 -23.29297,-60.09766 -15.21484,-16.25 -35.59766,-25.21875 -57.36328,-25.27344"
         fill-opacity="1"
         fill-rule="nonzero"
         id="path40"
         style="stroke-width:0;stroke-miterlimit:4;stroke-dasharray:none;fill:#262626;stroke:#262626" />
    </g>
    <path
       fill="#262626"
       d="m 34.443823,31.775571 c -0.86143,1.43352 -1.88871,2.207998 -2.524369,2.338779 -0.199465,0.04237 -0.357284,0.02338 -0.471257,-0.05914 -0.502687,-0.359477 -0.48223,-2.064795 0.697028,-4.026565 0.860696,-1.431319 1.887976,-2.205798 2.523636,-2.338778 0.07381,-0.01458 0.136629,-0.02045 0.191423,-0.02045 0.166586,0 0.248419,0.0585 0.279833,0.08184 0.503413,0.358009 0.482223,2.064787 -0.696294,4.024366 z m 1.321729,-4.901867 c -0.3624,-0.259376 -0.816859,-0.34121 -1.315888,-0.238187 -1.071118,0.222847 -2.308822,1.309306 -3.228704,2.837808 -1.376525,2.292014 -1.548959,4.638833 -0.399656,5.460074 0.263035,0.18485 0.569898,0.279834 0.908917,0.279834 0.132979,0 0.267418,-0.01458 0.408429,-0.04237 1.07331,-0.222847 2.311014,-1.311505 3.228697,-2.839273 1.377256,-2.290557 1.5475,-4.637376 0.398205,-5.457884"
       fill-opacity="1"
       fill-rule="nonzero"
       id="path44"
       style="stroke-width:0;stroke-miterlimit:4;stroke-dasharray:none;fill:#262626;stroke:#262626" />
  </g>
</svg>
