<svg xmlns="http://www.w3.org/2000/svg" xmlns:xlink="http://www.w3.org/1999/xlink" width="1080" zoomAndPan="magnify" viewBox="0 0 810 809.999993" height="1080" preserveAspectRatio="xMidYMid meet" version="1.0"><path fill="#f0f0f0" d="M 607.398438 162 L 202.84375 162 C 180.476562 162 162.484375 180.234375 162.484375 202.359375 L 162.484375 607.640625 C 162.484375 630.007812 180.71875 648 202.84375 648 L 607.15625 648 C 629.523438 648 647.515625 629.765625 647.515625 607.640625 L 647.515625 202.359375 C 647.757812 180.234375 629.765625 162 607.398438 162 Z M 306.171875 562.90625 L 234.449219 562.90625 L 234.449219 347.5 L 306.171875 347.5 Z M 270.1875 321.488281 C 247.578125 321.488281 229.34375 303.253906 229.34375 280.644531 C 229.34375 258.03125 247.578125 239.800781 270.1875 239.800781 C 292.800781 239.800781 311.035156 258.03125 311.035156 280.644531 C 311.035156 303.253906 292.800781 321.488281 270.1875 321.488281 Z M 576.035156 562.90625 L 504.070312 562.90625 L 502.371094 435.027344 C 502.371094 435.027344 504.070312 400.988281 466.875 401.230469 C 429.675781 401.476562 424.570312 435.027344 424.570312 435.027344 L 424.570312 562.90625 L 352.121094 562.90625 L 352.121094 347.5 L 421.652344 347.5 L 421.652344 377.164062 C 421.652344 377.164062 424.570312 367.4375 440.617188 356.011719 C 456.664062 344.585938 483.164062 342.152344 494.589844 342.640625 C 506.015625 343.125 521.578125 341.179688 547.589844 359.171875 C 575.550781 378.378906 576.277344 428.703125 576.277344 428.703125 Z M 576.035156 562.90625 " fill-opacity="1" fill-rule="nonzero"/></svg>