<?xml version="1.0" encoding="UTF-8" standalone="no"?>
<!-- Created with Inkscape (http://www.inkscape.org/) -->

<svg
   width="1024"
   height="1024"
   viewBox="0 0 270.93333 270.93333"
   version="1.1"
   id="svg5"
   inkscape:version="1.1.2 (0a00cf5339, 2022-02-04)"
   sodipodi:docname="logo_W_dark.svg"
   inkscape:export-filename="/home/alex/github/wef_2023/app/assets/images/favicon.png"
   inkscape:export-xdpi="48"
   inkscape:export-ydpi="48"
   xmlns:inkscape="http://www.inkscape.org/namespaces/inkscape"
   xmlns:sodipodi="http://sodipodi.sourceforge.net/DTD/sodipodi-0.dtd"
   xmlns="http://www.w3.org/2000/svg"
   xmlns:svg="http://www.w3.org/2000/svg">
  <sodipodi:namedview
     id="namedview7"
     pagecolor="#ffffff"
     bordercolor="#666666"
     borderopacity="1.0"
     inkscape:pageshadow="2"
     inkscape:pageopacity="0.0"
     inkscape:pagecheckerboard="0"
     inkscape:document-units="mm"
     showgrid="false"
     showguides="true"
     inkscape:guide-bbox="true"
     inkscape:zoom="0.40756353"
     inkscape:cx="478.45302"
     inkscape:cy="566.7828"
     inkscape:window-width="2560"
     inkscape:window-height="1012"
     inkscape:window-x="0"
     inkscape:window-y="0"
     inkscape:window-maximized="1"
     inkscape:current-layer="layer1"
     showborder="true"
     width="1024px"
     units="px" />
  <defs
     id="defs2">
    <inkscape:path-effect
       effect="perspective-envelope"
       up_left_point="16.45,101.49"
       up_right_point="30.71,106.69"
       down_left_point="16.554051,111.5671"
       down_right_point="30.806368,111.5671"
       id="path-effect18154"
       is_visible="true"
       lpeversion="1"
       deform_type="perspective"
       horizontal_mirror="false"
       vertical_mirror="false"
       overflow_perspective="false" />
  </defs>
  <g
     inkscape:label="Layer 1"
     inkscape:groupmode="layer"
     id="layer1">
    <ellipse
       style="opacity:1;fill:#042a2b;fill-opacity:1;stroke:#042a2b;stroke-width:2.94032"
       id="path18182"
       cx="135.46666"
       cy="135.46666"
       rx="133.52985"
       ry="133.52983"
       inkscape:export-filename="/home/alex/temp/logo_3_W.png"
       inkscape:export-xdpi="48"
       inkscape:export-ydpi="48" />
    <g
       aria-label="W"
       id="text2013"
       style="font-size:10.5833px;line-height:1.25;fill:#cdedf6;stroke-width:0.264583"
       inkscape:path-effect="#path-effect18154"
       transform="matrix(14.893732,0,0,14.893732,-215.94062,-1456.9806)">
      <path
         d="m 25.543004,106.43781 c -0.06285,-0.11338 -0.130631,-0.20678 -0.203455,-0.28007 -0.07008,-0.0729 -0.140466,-0.13374 -0.211172,-0.18241 -0.07128,-0.0519 -0.139541,-0.0946 -0.204726,-0.12812 -0.06222,-0.0356 -0.117896,-0.0693 -0.166906,-0.10105 -0.04931,-0.0348 -0.09014,-0.0729 -0.122393,-0.11415 -0.02886,-0.0432 -0.04384,-0.098 -0.04488,-0.16432 -0.0056,-0.35734 0.214927,-0.53784 0.646467,-0.5415 0.415583,-0.005 0.988519,0.12814 1.688788,0.3835 0.318042,0.11598 0.590316,0.23227 0.820697,0.34958 0.226467,0.11263 0.411689,0.22833 0.558297,0.34777 0.146208,0.11578 0.255335,0.237 0.328873,0.36436 0.07504,0.12467 0.113594,0.2569 0.11619,0.39759 8.8e-4,0.0477 -0.0094,0.0806 -0.03101,0.0988 -0.02167,0.016 -0.04904,0.0259 -0.08216,0.0295 -0.03327,0.004 -0.0701,0.004 -0.11054,9.7e-4 -0.03842,-0.005 -0.07467,-0.004 -0.108707,0.002 -0.03419,0.006 -0.06264,0.0196 -0.08529,0.0407 -0.02272,0.0212 -0.03362,0.0587 -0.03264,0.11252 5.09e-4,0.028 0.0046,0.0606 0.01219,0.0976 0.0076,0.037 0.02112,0.0814 0.04051,0.13313 l 0.471191,1.34308 c 0.02063,0.0582 0.04434,0.11002 0.0711,0.15552 0.02879,0.0435 0.05818,0.0679 0.08818,0.0733 0.02349,0.004 0.04765,-0.008 0.07249,-0.0371 0.02682,-0.0307 0.05308,-0.0858 0.07878,-0.16506 l 0.334389,-1.06585 c 0.02246,-0.0714 0.03319,-0.1318 0.03225,-0.18151 -9.83e-4,-0.0519 -0.01268,-0.095 -0.03515,-0.12957 -0.02054,-0.0341 -0.04804,-0.0638 -0.08258,-0.0892 -0.03268,-0.0249 -0.06847,-0.0465 -0.107435,-0.0647 -0.03715,-0.0199 -0.07349,-0.0418 -0.109003,-0.0657 -0.0336,-0.0234 -0.06218,-0.0497 -0.0857,-0.0789 -0.02152,-0.0309 -0.03274,-0.0697 -0.03361,-0.11651 -0.002,-0.10682 0.01618,-0.20041 0.05437,-0.28044 0.03794,-0.0818 0.09454,-0.14464 0.169376,-0.18846 0.07609,-0.0427 0.168686,-0.0647 0.277142,-0.0665 0.108786,-0.001 0.232563,0.024 0.370537,0.0743 0.137173,0.05 0.255869,0.11269 0.356969,0.18792 0.09966,0.0742 0.181716,0.15451 0.246785,0.24125 0.06617,0.0865 0.115915,0.17774 0.149588,0.27391 0.03348,0.0937 0.0511,0.18791 0.05297,0.28285 9.38e-4,0.0475 -0.0084,0.079 -0.02802,0.0947 -0.0197,0.0157 -0.04629,0.0244 -0.07987,0.0262 -0.03208,2.5e-4 -0.06944,-3e-5 -0.112149,-8.4e-4 -0.04302,-0.003 -0.08616,0.002 -0.129423,0.0158 -0.04354,0.0135 -0.08623,0.0396 -0.128063,0.0784 -0.0403,0.0396 -0.075,0.10154 -0.104035,0.18599 l -0.724264,2.11779 c -0.07109,0.20698 -0.135155,0.39254 -0.19197,0.55605 -0.05733,0.16264 -0.112358,0.30668 -0.165011,0.43179 -0.05095,0.12387 -0.101578,0.2283 -0.151858,0.31307 -0.04845,0.0854 -0.100838,0.15418 -0.15724,0.2062 -0.05456,0.0547 -0.115434,0.0937 -0.182768,0.11664 -0.06789,0.0255 -0.144699,0.0383 -0.230683,0.0383 -0.112964,0 -0.219751,-0.0335 -0.320059,-0.10106 -0.101552,-0.0684 -0.208957,-0.18525 -0.322394,-0.35151 -0.112399,-0.1684 -0.237666,-0.39545 -0.376303,-0.68283 -0.138191,-0.29423 -0.300269,-0.66642 -0.487454,-1.11998 l -0.669011,-1.60653 -0.790135,1.73725 c -0.179356,0.39317 -0.334486,0.7268 -0.464015,0.99772 -0.131459,0.27198 -0.260374,0.49286 -0.386571,0.66135 -0.127956,0.16783 -0.265847,0.28743 -0.414028,0.35789 -0.146629,0.0715 -0.330924,0.1077 -0.554889,0.1077 -0.192469,0 -0.366612,-0.0469 -0.521382,-0.14187 -0.156993,-0.0931 -0.32581,-0.25021 -0.506913,-0.47283 -0.17964,-0.22613 -0.390373,-0.52943 -0.633838,-0.91317 -0.248686,-0.39196 -0.562211,-0.88829 -0.945612,-1.49704 l -2.484495,-3.92176 c -0.125233,-0.19342 -0.260647,-0.35688 -0.406556,-0.49012 -0.141131,-0.13287 -0.283532,-0.24577 -0.42723,-0.33838 -0.145261,-0.0936 -0.288615,-0.17347 -0.429982,-0.23924 -0.136037,-0.0644 -0.259694,-0.12738 -0.370612,-0.18876 -0.104818,-0.0598 -0.189399,-0.12166 -0.253359,-0.18557 -0.0714,-0.0705 -0.107742,-0.15479 -0.108753,-0.25265 -0.0052,-0.50536 0.439508,-0.71551 1.291791,-0.63472 0.806129,0.0743 1.889776,0.36459 3.177212,0.83407 0.575159,0.20973 1.063763,0.41057 1.475193,0.60467 0.396384,0.18392 0.717657,0.36406 0.969969,0.54215 0.250228,0.17226 0.435667,0.34548 0.55967,0.52117 0.126239,0.1719 0.190192,0.34849 0.193009,0.53136 9.09e-4,0.059 -0.01886,0.0984 -0.05943,0.11835 -0.03699,0.0211 -0.08363,0.0335 -0.140064,0.0372 -0.0568,6.9e-4 -0.121628,-0.002 -0.194635,-0.009 -0.06969,-0.009 -0.133906,-0.0115 -0.192547,-0.008 -0.05903,6.5e-4 -0.110288,0.0128 -0.15367,0.0366 -0.0396,0.022 -0.059,0.0637 -0.05808,0.12512 5.48e-4,0.0369 0.0092,0.0821 0.02604,0.13576 0.01678,0.0536 0.04563,0.11645 0.08646,0.18854 l 0.959926,1.82768 c 0.04089,0.0748 0.0815,0.14202 0.121847,0.20171 0.04013,0.0566 0.08506,0.0893 0.134704,0.0982 0.03882,0.007 0.07891,-0.007 0.120239,-0.0428 0.04114,-0.0353 0.08505,-0.10262 0.131665,-0.20174 z"
         style="font-weight:bold;font-family:Corben;-inkscape-font-specification:'Corben, Bold';fill:#cdedf6"
         id="path18133"
         inkscape:original-d="m 23.08079,105.15408 q -0.09819,-0.18087 -0.211873,-0.27905 -0.10852,-0.0982 -0.21704,-0.14986 -0.10852,-0.0569 -0.206705,-0.0827 -0.09302,-0.031 -0.165364,-0.062 -0.07235,-0.0362 -0.118856,-0.093 -0.04134,-0.062 -0.04134,-0.18087 0,-0.64079 0.661457,-0.92501 0.666624,-0.28938 1.932692,-0.28938 0.60978,0 1.080034,0.0723 0.475422,0.0672 0.795815,0.21704 0.32556,0.1447 0.490924,0.37724 0.170532,0.22738 0.170532,0.54777 0,0.10852 -0.05168,0.16536 -0.05168,0.0517 -0.129191,0.0827 -0.07752,0.031 -0.170532,0.0517 -0.08785,0.0155 -0.165364,0.0517 -0.07751,0.0362 -0.129191,0.0982 -0.05168,0.062 -0.05168,0.18087 0,0.062 0.0155,0.13953 0.0155,0.0775 0.05684,0.18086 l 0.687294,1.85518 q 0.04651,0.12402 0.108521,0.21704 0.06718,0.0879 0.139525,0.0879 0.05684,0 0.118856,-0.0775 0.06718,-0.0827 0.134358,-0.27906 l 0.599445,-1.8035 q 0.06201,-0.18603 0.06201,-0.30489 0,-0.12402 -0.05684,-0.1912 -0.05168,-0.0672 -0.139525,-0.10335 -0.08268,-0.0362 -0.180867,-0.0517 -0.09302,-0.0207 -0.180867,-0.0517 -0.08268,-0.031 -0.139526,-0.0827 -0.05168,-0.0568 -0.05168,-0.16536 0,-0.24805 0.09818,-0.46509 0.09819,-0.22221 0.289387,-0.38757 0.19637,-0.16536 0.48059,-0.26355 0.289387,-0.0982 0.666624,-0.0982 0.382404,0 0.671791,0.0982 0.289387,0.0982 0.480589,0.26355 0.19637,0.16536 0.294555,0.38757 0.09818,0.21704 0.09818,0.46509 0,0.12402 -0.06201,0.18087 -0.06201,0.0568 -0.165365,0.0879 -0.09818,0.0258 -0.227375,0.0568 -0.129191,0.0258 -0.258381,0.093 -0.129191,0.0672 -0.253214,0.19637 -0.118856,0.12919 -0.206705,0.36173 l -1.379757,3.66902 q -0.191202,0.50642 -0.341063,0.89916 -0.149861,0.38757 -0.284219,0.68213 -0.129191,0.28939 -0.253214,0.48576 -0.118856,0.19637 -0.253214,0.31522 -0.129191,0.12402 -0.284219,0.1757 -0.155029,0.0568 -0.346231,0.0568 -0.248046,0 -0.459919,-0.14469 -0.211873,-0.14469 -0.439248,-0.49092 -0.222208,-0.34623 -0.485757,-0.92501 -0.258382,-0.58394 -0.594277,-1.45727 l -0.764809,-1.96887 -0.899167,2.36678 q -0.289387,0.75964 -0.490925,1.26607 -0.201537,0.50126 -0.387572,0.80615 -0.186034,0.29972 -0.392739,0.42374 -0.201538,0.12402 -0.496093,0.12402 -0.248046,0 -0.439248,-0.15502 -0.191202,-0.14987 -0.403075,-0.50126 -0.206705,-0.3514 -0.475421,-0.93018 -0.268717,-0.57877 -0.661457,-1.43143 l -1.514114,-3.26594 q -0.103353,-0.21704 -0.222208,-0.34106 -0.113688,-0.12403 -0.227376,-0.1912 -0.113688,-0.0672 -0.222208,-0.0982 -0.103352,-0.031 -0.186034,-0.0672 -0.07751,-0.0362 -0.124023,-0.093 -0.05168,-0.062 -0.05168,-0.18603 0,-0.64079 0.661457,-0.92501 0.666623,-0.28938 1.927524,-0.28938 0.60978,0 1.085202,0.0723 0.475422,0.0672 0.795815,0.21704 0.32556,0.1447 0.490924,0.37724 0.170532,0.22738 0.170532,0.54777 0,0.10335 -0.05684,0.1602 -0.05168,0.0568 -0.129191,0.093 -0.07751,0.031 -0.175699,0.0569 -0.09302,0.0207 -0.170532,0.0568 -0.07751,0.031 -0.134358,0.093 -0.05168,0.0568 -0.05168,0.16019 0,0.062 0.02067,0.1447 0.02067,0.0827 0.07235,0.18603 l 0.847491,1.85518 q 0.05684,0.11886 0.113688,0.21187 0.05684,0.0879 0.12919,0.0879 0.05684,0 0.118856,-0.0775 0.06201,-0.0775 0.134358,-0.27389 z" />
    </g>
  </g>
</svg>
