<svg xmlns="http://www.w3.org/2000/svg" xmlns:xlink="http://www.w3.org/1999/xlink" width="1080" zoomAndPan="magnify" viewBox="0 0 810 809.999993" height="1080" preserveAspectRatio="xMidYMid meet" version="1.0"><defs><clipPath id="ae8dd62ca5"><path d="M 97.519531 317.019531 L 671 317.019531 L 671 492 L 97.519531 492 Z M 97.519531 317.019531 " clip-rule="nonzero"/></clipPath></defs><g clip-path="url(#ae8dd62ca5)"><path fill="#00a6ed" d="M 583.703125 491.085938 L 184.875 491.085938 C 136.710938 491.085938 97.675781 452.105469 97.675781 404.039062 C 97.675781 355.957031 136.726562 316.992188 184.875 316.992188 L 583.703125 316.992188 C 631.871094 316.992188 670.902344 355.972656 670.902344 404.039062 C 670.917969 452.117188 631.871094 491.085938 583.703125 491.085938 Z M 583.703125 491.085938 " fill-opacity="1" fill-rule="nonzero"/></g><path fill="#262626" d="M 585.449219 455.722656 C 584.960938 455.707031 584.488281 455.558594 584.058594 455.265625 C 580.40625 452.664062 577.222656 449.503906 574.605469 445.855469 C 573.789062 444.734375 574.058594 443.152344 575.179688 442.355469 C 576.304688 441.542969 577.890625 441.808594 578.6875 442.929688 C 580.980469 446.121094 583.777344 448.898438 586.976562 451.171875 C 588.113281 451.972656 588.367188 453.550781 587.566406 454.675781 C 587.0625 455.382812 586.265625 455.753906 585.449219 455.722656 Z M 570.359375 433.269531 C 569.246094 433.242188 568.242188 432.472656 567.976562 431.335938 C 567.175781 427.921875 566.820312 424.40625 566.925781 420.890625 C 566.953125 419.945312 567.011719 418.984375 567.101562 418.039062 C 567.234375 416.652344 568.464844 415.648438 569.855469 415.796875 C 571.230469 415.929688 572.25 417.167969 572.101562 418.542969 C 572.015625 419.371094 571.96875 420.210938 571.941406 421.054688 C 571.851562 424.140625 572.164062 427.214844 572.871094 430.210938 C 573.183594 431.558594 572.355469 432.914062 570.992188 433.226562 C 570.785156 433.253906 570.578125 433.269531 570.359375 433.269531 Z M 645.527344 417.96875 C 644.359375 417.9375 643.335938 417.082031 643.128906 415.882812 C 642.492188 412.207031 641.28125 408.660156 639.519531 405.335938 C 638.867188 404.113281 639.34375 402.589844 640.570312 401.941406 C 641.796875 401.289062 643.324219 401.761719 643.972656 402.988281 C 645.972656 406.785156 647.363281 410.832031 648.085938 415.011719 C 648.324219 416.386719 647.40625 417.6875 646.046875 417.921875 C 645.867188 417.96875 645.691406 417.980469 645.527344 417.96875 Z M 573.910156 406.445312 C 573.539062 406.429688 573.152344 406.34375 572.800781 406.148438 C 571.570312 405.5 571.113281 403.980469 571.761719 402.753906 C 573.878906 398.792969 576.617188 395.234375 579.902344 392.191406 C 580.921875 391.246094 582.507812 391.304688 583.453125 392.308594 C 584.398438 393.328125 584.339844 394.910156 583.335938 395.855469 C 580.464844 398.527344 578.066406 401.644531 576.203125 405.117188 C 575.730469 405.988281 574.828125 406.476562 573.910156 406.445312 Z M 632.210938 395.042969 C 631.664062 395.027344 631.128906 394.835938 630.683594 394.464844 C 627.667969 391.96875 624.261719 389.988281 620.5625 388.585938 C 619.261719 388.097656 618.609375 386.636719 619.113281 385.351562 C 619.601562 384.050781 621.066406 383.402344 622.355469 383.90625 C 626.558594 385.5 630.433594 387.757812 633.894531 390.609375 C 634.960938 391.496094 635.109375 393.078125 634.222656 394.15625 C 633.703125 394.761719 632.964844 395.070312 632.210938 395.042969 Z M 594.300781 388.660156 C 593.308594 388.632812 592.390625 388.011719 592.019531 387.035156 C 591.53125 385.734375 592.199219 384.289062 593.5 383.800781 C 597.703125 382.21875 602.113281 381.363281 606.609375 381.230469 C 608 381.1875 609.15625 382.28125 609.199219 383.667969 C 609.246094 385.054688 608.148438 386.207031 606.757812 386.253906 C 602.824219 386.371094 598.960938 387.125 595.277344 388.5 C 594.933594 388.617188 594.625 388.660156 594.300781 388.660156 Z M 594.300781 388.660156 " fill-opacity="1" fill-rule="nonzero"/><path fill="#262626" d="M 697.789062 438.070312 C 692.210938 441.277344 690.273438 448.394531 693.484375 453.964844 L 696.785156 459.710938 L 696.726562 459.726562 L 685.921875 440.964844 C 682.710938 435.398438 675.582031 433.460938 670 436.667969 C 664.421875 439.871094 662.484375 446.992188 665.695312 452.5625 L 674.070312 467.113281 L 674.054688 467.113281 L 660.5 443.625 C 657.289062 438.054688 650.160156 436.121094 644.578125 439.328125 C 639 442.53125 637.078125 449.621094 640.257812 455.191406 L 618.921875 418.113281 C 615.710938 412.546875 608.578125 410.609375 603 413.816406 C 597.421875 417.023438 595.484375 424.140625 598.695312 429.710938 L 638.601562 499.03125 L 618.671875 482.679688 C 613.34375 479.074219 606.078125 480.464844 602.46875 485.796875 C 598.855469 491.113281 600.246094 498.367188 605.589844 501.972656 C 605.589844 501.972656 637.847656 528.558594 641.207031 531.054688 C 659.671875 544.792969 673.539062 553.832031 681.882812 556.832031 C 686.160156 558.367188 691.988281 559.253906 696.015625 557.128906 L 736.128906 534.230469 C 740.390625 531.988281 742.433594 524.570312 741.796875 519.800781 C 740.332031 508.898438 738.601562 498.617188 734 483.730469 C 732.710938 479.535156 726.71875 466.785156 724.664062 462.917969 L 713.710938 442.308594 C 710.5 436.785156 703.371094 434.867188 697.789062 438.070312 Z M 697.789062 438.070312 " fill-opacity="1" fill-rule="nonzero"/></svg>