<?xml version="1.0" encoding="UTF-8" standalone="no"?>
<svg
   width="100"
   zoomAndPan="magnify"
   viewBox="0 0 75 74.999999"
   height="100"
   preserveAspectRatio="xMidYMid meet"
   version="1.0"
   id="svg86"
   sodipodi:docname="Passion.svg"
   inkscape:version="1.1.2 (0a00cf5339, 2022-02-04)"
   xmlns:inkscape="http://www.inkscape.org/namespaces/inkscape"
   xmlns:sodipodi="http://sodipodi.sourceforge.net/DTD/sodipodi-0.dtd"
   xmlns="http://www.w3.org/2000/svg"
   xmlns:svg="http://www.w3.org/2000/svg">
  <sodipodi:namedview
     id="namedview88"
     pagecolor="#ffffff"
     bordercolor="#666666"
     borderopacity="1.0"
     inkscape:pageshadow="2"
     inkscape:pageopacity="0.0"
     inkscape:pagecheckerboard="0"
     showgrid="false"
     inkscape:zoom="3.3888747"
     inkscape:cx="59.164182"
     inkscape:cy="77.164257"
     inkscape:window-width="1400"
     inkscape:window-height="868"
     inkscape:window-x="0"
     inkscape:window-y="0"
     inkscape:window-maximized="1"
     inkscape:current-layer="svg86" />
  <defs
     id="defs8">
    <clipPath
       id="3bf0112537">
      <path
         d="M 139.73437,568 H 160 v 12.70703 h -20.26563 z m 0,0"
         clip-rule="nonzero"
         id="path2" />
    </clipPath>
    <clipPath
       id="e5137d51b3">
      <path
         d="M 523,157.06641 H 729.23437 V 277 H 523 Z m 0,0"
         clip-rule="nonzero"
         id="path5" />
    </clipPath>
  </defs>
  <g
     id="g943"
     transform="matrix(0.12567464,0,0,0.12567464,-17.103673,-8.8598409)"
     style="stroke-width:2.98389554;stroke-miterlimit:4;stroke-dasharray:none;stroke:#262626;fill:#262626">
    <path
       fill="#262626"
       d="m 252.76172,506.97656 c -0.0937,0.043 -0.1875,0.0977 -0.27344,0.16016 -4.99609,3.67969 -10.15625,7.38281 -15.32422,11.01562 -0.36328,0.25391 -0.60156,0.63282 -0.67578,1.0625 -0.082,0.4375 0.0156,0.87891 0.26953,1.24219 0.41016,0.58203 1.14453,0.83203 1.82813,0.63281 0.0781,-0.0234 0.15625,-0.0508 0.23437,-0.0898 0.082,-0.043 0.16406,-0.0859 0.24219,-0.14453 5.22266,-3.66797 10.39844,-7.38672 15.38281,-11.05469 0.35547,-0.26172 0.58985,-0.64844 0.65625,-1.08203 0.0664,-0.4375 -0.043,-0.875 -0.30078,-1.23047 -0.46875,-0.63281 -1.32812,-0.85156 -2.03906,-0.51172"
       fill-opacity="1"
       fill-rule="nonzero"
       id="path10"
       style="stroke-width:2.98389554;stroke-miterlimit:4;stroke-dasharray:none;stroke:#262626;fill:#262626" />
    <path
       fill="#262626"
       d="m 176.48047,368.72656 c 0.0781,-0.0234 0.16015,-0.0547 0.23828,-0.0937 0.0937,-0.043 0.18359,-0.0976 0.27344,-0.16406 0.35156,-0.25781 0.58593,-0.64453 0.65234,-1.07813 0.0664,-0.4375 -0.043,-0.875 -0.30469,-1.23046 -3.76953,-5.11719 -6.89453,-10.48047 -9.28906,-15.94922 -0.17578,-0.40235 -0.5,-0.71875 -0.91406,-0.875 -0.41406,-0.16016 -0.86328,-0.15235 -1.26563,0.0273 l -0.0469,0.0234 c -0.8086,0.38281 -1.16016,1.33203 -0.80078,2.15234 2.49218,5.69141 5.74609,11.26953 9.65625,16.58203 0.41015,0.5586 1.13281,0.80469 1.80078,0.60547"
       fill-opacity="1"
       fill-rule="nonzero"
       id="path12"
       style="stroke-width:2.98389554;stroke-miterlimit:4;stroke-dasharray:none;stroke:#262626;fill:#262626" />
    <path
       fill="#262626"
       d="m 221.60156,528.84766 c -5.19531,3.48828 -10.5039,6.97656 -15.77734,10.375 -0.3711,0.24218 -0.62891,0.60937 -0.72266,1.04296 -0.0898,0.42579 -0.008,0.875 0.22656,1.24219 0.39844,0.61719 1.16407,0.89844 1.85547,0.69141 0.0859,-0.0234 0.16407,-0.0508 0.24219,-0.0898 0.0625,-0.0312 0.12891,-0.0703 0.1875,-0.10546 5.31641,-3.42188 10.64063,-6.92969 15.83203,-10.41797 0.75391,-0.50782 0.95703,-1.53907 0.44922,-2.29297 -0.49609,-0.74219 -1.53906,-0.95703 -2.29297,-0.44531"
       fill-opacity="1"
       fill-rule="nonzero"
       id="path14"
       style="stroke-width:2.98389554;stroke-miterlimit:4;stroke-dasharray:none;stroke:#262626;fill:#262626" />
    <path
       fill="#262626"
       d="m 161.49609,334.46094 c 0.0859,-0.0117 0.16407,-0.0312 0.23828,-0.0508 0.082,-0.0274 0.16016,-0.0547 0.23438,-0.0937 0.66406,-0.31641 1.03516,-1.01563 0.92578,-1.73047 -0.91797,-6.17188 -0.90234,-12.33203 0.0469,-18.29297 0.0703,-0.4336 -0.0391,-0.8711 -0.29688,-1.22656 -0.25781,-0.36329 -0.64062,-0.59766 -1.07812,-0.66797 -0.32813,-0.0508 -0.66797,-0.004 -0.96485,0.14062 -0.49609,0.23438 -0.83984,0.69531 -0.92578,1.23438 -1,6.30468 -1.01953,12.79297 -0.0469,19.29297 0.0625,0.4375 0.28906,0.82421 0.64843,1.08593 0.35547,0.26172 0.79297,0.3711 1.21875,0.3086"
       fill-opacity="1"
       fill-rule="nonzero"
       id="path16"
       style="stroke-width:2.98389554;stroke-miterlimit:4;stroke-dasharray:none;stroke:#262626;fill:#262626" />
    <path
       fill="#262626"
       d="m 189.84375,549.30078 c -5.35156,3.30469 -10.79688,6.58984 -16.17969,9.76953 -0.78125,0.46485 -1.04687,1.48047 -0.58203,2.26172 0.39063,0.66016 1.16406,0.96484 1.90234,0.74609 0.0781,-0.0234 0.15235,-0.0547 0.23047,-0.0937 0.0469,-0.0156 0.0859,-0.0391 0.12891,-0.0703 5.42578,-3.20312 10.88672,-6.5039 16.23437,-9.80078 0.37891,-0.23047 0.64063,-0.59766 0.73829,-1.02344 0.10546,-0.43359 0.0352,-0.875 -0.19922,-1.2539 -0.47657,-0.76563 -1.47266,-1.03125 -2.27344,-0.53516"
       fill-opacity="1"
       fill-rule="nonzero"
       id="path18"
       style="stroke-width:2.98389554;stroke-miterlimit:4;stroke-dasharray:none;stroke:#262626;fill:#262626" />
    <path
       fill="#262626"
       d="m 189.69922,379.96875 c -0.5,-0.46484 -1.21875,-0.57813 -1.83985,-0.28906 -0.1875,0.0937 -0.35156,0.21875 -0.49609,0.37109 -0.62109,0.66406 -0.58203,1.71094 0.082,2.33203 4.53906,4.23438 9.58594,8.21875 14.99219,11.84766 0.41016,0.27734 0.91797,0.35547 1.39062,0.21094 0.0859,-0.0234 0.16407,-0.0547 0.24219,-0.0937 0.26953,-0.125 0.4961,-0.32422 0.66016,-0.56641 0.24609,-0.36719 0.33203,-0.80859 0.25,-1.24219 -0.0859,-0.42969 -0.33594,-0.80469 -0.69922,-1.05078 -5.25781,-3.52734 -10.16016,-7.40625 -14.58203,-11.51953"
       fill-opacity="1"
       fill-rule="nonzero"
       id="path20"
       style="stroke-width:2.98389554;stroke-miterlimit:4;stroke-dasharray:none;stroke:#262626;fill:#262626" />
    <g
       clip-path="url(#3bf0112537)"
       id="g24"
       style="stroke-width:2.98389554;stroke-miterlimit:4;stroke-dasharray:none;stroke:#262626;fill:#262626">
      <path
         fill="#262626"
         d="m 141.88672,580.05859 h 0.004 z m 15.40625,-11.53906 c -10.47266,5.89063 -16.60156,9.03516 -16.66016,9.0625 C 139.82031,578 139.5,579 139.91797,579.80469 c 0.36328,0.71093 1.17969,1.05859 1.94531,0.83203 0.082,-0.0273 0.16797,-0.0625 0.25391,-0.0977 l 0.082,-0.0469 c 1.60156,-0.82813 7.53515,-3.9336 16.71484,-9.09766 0.78906,-0.44531 1.07422,-1.45312 0.62891,-2.25 -0.44531,-0.78516 -1.44922,-1.08203 -2.25,-0.625"
         fill-opacity="1"
         fill-rule="nonzero"
         id="path22"
         style="stroke-width:2.98389554;stroke-miterlimit:4;stroke-dasharray:none;stroke:#262626;fill:#262626" />
    </g>
    <path
       fill="#262626"
       d="m 292.73437,420.29297 c 6.22657,0.11719 12.61719,-0.0352 18.98829,-0.45313 0.11718,-0.008 0.23828,-0.0273 0.36328,-0.0625 0.0859,-0.0234 0.16406,-0.0586 0.23828,-0.0937 0.62109,-0.29297 0.98828,-0.92187 0.9414,-1.60156 -0.0273,-0.4375 -0.22656,-0.83984 -0.55859,-1.13281 -0.33594,-0.28906 -0.75781,-0.4336 -1.19922,-0.40625 -6.30078,0.41015 -12.59765,0.5625 -18.70703,0.44531 -0.25781,-0.0117 -0.51562,0.0469 -0.74609,0.16016 -0.57032,0.26562 -0.92969,0.82422 -0.94141,1.45703 -0.0156,0.91015 0.71094,1.66797 1.62109,1.6875"
       fill-opacity="1"
       fill-rule="nonzero"
       id="path26"
       style="stroke-width:2.98389554;stroke-miterlimit:4;stroke-dasharray:none;stroke:#262626;fill:#262626" />
    <path
       fill="#262626"
       d="m 276.9375,281.82812 c 0.42578,0.375 1.00781,0.4961 1.55859,0.33594 0.0781,-0.0234 0.16016,-0.0547 0.23438,-0.0937 0.20703,-0.0937 0.38672,-0.23437 0.53906,-0.40625 0.59766,-0.6875 0.52734,-1.73437 -0.16406,-2.32812 -3.31641,-2.89844 -8.69531,-7.20703 -15.46094,-11.31641 -0.48047,-0.29297 -1.06641,-0.32031 -1.57422,-0.082 -0.28906,0.14062 -0.53515,0.35937 -0.70312,0.63672 -0.46875,0.77734 -0.21875,1.79687 0.55859,2.26953 6.5625,3.98437 11.78516,8.17187 15.01172,10.98437"
       fill-opacity="1"
       fill-rule="nonzero"
       id="path28"
       style="stroke-width:2.98389554;stroke-miterlimit:4;stroke-dasharray:none;stroke:#262626;fill:#262626" />
    <path
       fill="#262626"
       d="m 279.00781,273.98047 c 0.11328,-0.0117 0.21875,-0.0352 0.32422,-0.0625 0.0781,-0.0234 0.16016,-0.0547 0.23438,-0.0937 0.625,-0.29688 1.0039,-0.96094 0.93359,-1.64844 -0.55078,-5.70703 0.30859,-11.6875 2.54687,-17.78125 0.31641,-0.85547 -0.125,-1.80859 -0.98046,-2.12109 -0.42188,-0.15625 -0.875,-0.13672 -1.28125,0.0547 -0.38672,0.1875 -0.6875,0.51954 -0.83985,0.92579 -2.41015,6.5625 -3.33203,13.03515 -2.73437,19.23828 0.0898,0.90625 0.89453,1.57812 1.79687,1.48828"
       fill-opacity="1"
       fill-rule="nonzero"
       id="path30"
       style="stroke-width:2.98389554;stroke-miterlimit:4;stroke-dasharray:none;stroke:#262626;fill:#262626" />
    <path
       fill="#262626"
       d="m 291.22656,239.04687 c 0.0859,-0.0234 0.16406,-0.0547 0.2461,-0.0898 0.22265,-0.10937 0.42968,-0.27734 0.58984,-0.47656 3.69922,-4.75781 8.07812,-9.14844 13.02344,-13.04297 0.71093,-0.5625 0.83984,-1.60547 0.26953,-2.32031 -0.47656,-0.60938 -1.30078,-0.80469 -2,-0.46875 -0.11328,0.0508 -0.21875,0.11718 -0.31641,0.1914 -5.15625,4.06641 -9.72656,8.64063 -13.58594,13.61328 -0.55859,0.71875 -0.42968,1.75391 0.29297,2.31641 0.41797,0.32422 0.97266,0.43359 1.48047,0.27734"
       fill-opacity="1"
       fill-rule="nonzero"
       id="path32"
       style="stroke-width:2.98389554;stroke-miterlimit:4;stroke-dasharray:none;stroke:#262626;fill:#262626" />
    <path
       fill="#262626"
       d="m 356.51172,210.91016 c 5.96094,1.28125 11.52344,3.73437 16.52344,7.28906 0.42187,0.29687 0.94531,0.38281 1.43359,0.23437 0.0781,-0.0234 0.16406,-0.0547 0.24219,-0.0937 0.25,-0.12109 0.46875,-0.30468 0.6289,-0.53515 0.53125,-0.74219 0.35157,-1.77344 -0.39062,-2.29688 -5.3711,-3.82031 -11.33985,-6.45312 -17.74219,-7.82812 -0.35547,-0.0781 -0.72266,-0.0352 -1.05469,0.12109 -0.46875,0.22266 -0.79687,0.64063 -0.90625,1.14844 -0.1914,0.89062 0.375,1.76953 1.26563,1.96094"
       fill-opacity="1"
       fill-rule="nonzero"
       id="path34"
       style="stroke-width:2.98389554;stroke-miterlimit:4;stroke-dasharray:none;stroke:#262626;fill:#262626" />
    <path
       fill="#262626"
       d="m 192.35547,269.70703 c 0.0703,-0.0156 0.14062,-0.0469 0.21094,-0.0781 0.0898,-0.043 0.17578,-0.0937 0.26953,-0.16016 5.22656,-3.66406 10.77734,-6.41797 16.36328,-8.11328 0.84765,-0.26172 1.33594,-1.29297 1.07031,-2.17188 -0.24609,-0.80078 -1.14062,-1.5 -2.05078,-1.25781 l -0.0898,0.0273 c -2.42579,0.72266 -4.90625,1.6836 -7.36329,2.86329 -3.23828,1.53906 -6.55468,3.5 -9.86328,5.82421 -0.36328,0.25391 -0.60547,0.66797 -0.67187,1.14063 -0.0625,0.44922 0.0469,0.91016 0.29687,1.26172 0.41016,0.58984 1.16797,0.86719 1.82813,0.66406"
       fill-opacity="1"
       fill-rule="nonzero"
       id="path36"
       style="stroke-width:2.98389554;stroke-miterlimit:4;stroke-dasharray:none;stroke:#262626;fill:#262626" />
    <path
       fill="#262626"
       d="m 175.87891,285.74609 c 1.08984,-1.35156 2.1914,-2.65625 3.28515,-3.88672 0.60547,-0.67968 0.54297,-1.72656 -0.13672,-2.33203 -0.5,-0.44531 -1.21093,-0.54297 -1.80859,-0.25781 -0.20313,0.0937 -0.37891,0.23047 -0.52344,0.39453 -1.14453,1.28516 -2.28515,2.63672 -3.38672,4.00781 -2.99609,3.71485 -5.5625,7.67188 -7.64062,11.75 -0.41406,0.8125 -0.0898,1.8086 0.72265,2.22657 0.37891,0.1914 0.8125,0.23047 1.22657,0.10547 0.0781,-0.0234 0.15625,-0.0508 0.23828,-0.0859 0.32812,-0.16016 0.58984,-0.41797 0.75781,-0.74219 1.97266,-3.87891 4.41797,-7.63672 7.26563,-11.17969"
       fill-opacity="1"
       fill-rule="nonzero"
       id="path38"
       style="stroke-width:2.98389554;stroke-miterlimit:4;stroke-dasharray:none;stroke:#262626;fill:#262626" />
    <path
       fill="#262626"
       d="m 330.60547,417.85547 c 6.15625,-0.88672 12.43359,-2.02344 18.67969,-3.37891 0.043,-0.008 0.0898,-0.0195 0.11328,-0.0273 0.0859,-0.0274 0.16406,-0.0586 0.23828,-0.0937 0.69531,-0.33203 1.0664,-1.08985 0.90625,-1.83985 -0.19531,-0.89062 -1.07813,-1.46093 -1.96875,-1.26953 -6.125,1.33594 -12.32813,2.45703 -18.4375,3.33985 -0.16406,0.0234 -0.32422,0.0703 -0.48047,0.14062 -0.65234,0.3125 -1.02734,1.00781 -0.92578,1.72656 0.13281,0.90235 0.97265,1.53125 1.875,1.40235"
       fill-opacity="1"
       fill-rule="nonzero"
       id="path40"
       style="stroke-width:2.98389554;stroke-miterlimit:4;stroke-dasharray:none;stroke:#262626;fill:#262626" />
    <path
       fill="#262626"
       d="m 227.26562,259.20703 c 5.83204,0.29688 11.87891,1.52344 17.96875,3.65234 0.32813,0.11329 0.67969,0.125 1.01172,0.0195 0.0859,-0.0234 0.16407,-0.0508 0.24219,-0.0899 0.40234,-0.1914 0.70313,-0.52734 0.85156,-0.94531 0.29688,-0.85938 -0.16015,-1.80859 -1.01562,-2.10938 -6.38672,-2.22656 -12.7461,-3.51953 -18.89063,-3.82812 -0.27343,-0.0156 -0.54687,0.043 -0.79297,0.16016 -0.54687,0.25781 -0.91015,0.79687 -0.9414,1.40625 -0.0234,0.4414 0.125,0.86328 0.42578,1.1914 0.29687,0.32813 0.69922,0.51953 1.14062,0.54297"
       fill-opacity="1"
       fill-rule="nonzero"
       id="path42"
       style="stroke-width:2.98389554;stroke-miterlimit:4;stroke-dasharray:none;stroke:#262626;fill:#262626" />
    <path
       fill="#262626"
       d="m 403.54687,284.79297 c 0.34766,0.27344 0.78125,0.39844 1.22266,0.34765 0.10547,-0.0156 0.19531,-0.0351 0.28125,-0.0586 0.0781,-0.0273 0.16016,-0.0547 0.23828,-0.0937 0.63281,-0.30469 1.00781,-0.98047 0.92969,-1.67969 -0.76953,-6.64062 -1.83203,-12.95703 -3.16016,-18.77734 -0.0937,-0.42969 -0.35547,-0.79688 -0.72656,-1.03125 -0.375,-0.23438 -0.82031,-0.30859 -1.24219,-0.21094 -0.12109,0.0234 -0.23828,0.0664 -0.35156,0.11719 -0.69141,0.32812 -1.07031,1.11328 -0.89844,1.85937 1.30078,5.71094 2.34375,11.91016 3.09375,18.41797 0.0508,0.44141 0.26953,0.83203 0.61328,1.10938"
       fill-opacity="1"
       fill-rule="nonzero"
       id="path44"
       style="stroke-width:2.98389554;stroke-miterlimit:4;stroke-dasharray:none;stroke:#262626;fill:#262626" />
    <path
       fill="#262626"
       d="m 386.15625,228.91406 c -0.74219,0.52735 -0.92188,1.5586 -0.39844,2.30078 3.30078,4.6875 6.20313,10.16407 8.64453,16.27735 0.32032,0.79687 1.1836,1.21484 2.01172,0.96484 0.043,-0.008 0.0859,-0.0234 0.13672,-0.0469 0.0352,-0.008 0.0664,-0.0234 0.0977,-0.043 0.78515,-0.3711 1.14843,-1.30078 0.82422,-2.10157 -2.53516,-6.35546 -5.56641,-12.05078 -9.01172,-16.95312 -0.51953,-0.73438 -1.53907,-0.9375 -2.30469,-0.39844"
       fill-opacity="1"
       fill-rule="nonzero"
       id="path46"
       style="stroke-width:2.98389554;stroke-miterlimit:4;stroke-dasharray:none;stroke:#262626;fill:#262626" />
    <path
       fill="#262626"
       d="m 406.76953,301.17187 c -0.30859,-0.32031 -0.71875,-0.5 -1.16016,-0.51171 -0.25781,-0.004 -0.51562,0.0508 -0.75,0.16015 -0.5664,0.27344 -0.92578,0.82422 -0.94531,1.44922 -0.14453,6.05469 -0.77344,12.25781 -1.86719,18.45313 -0.0742,0.43359 0.0195,0.875 0.27344,1.23437 0.25391,0.36328 0.63281,0.60156 1.07031,0.68359 0.25,0.0391 0.51172,0.0274 0.75391,-0.0469 0.0859,-0.0195 0.16406,-0.0547 0.23828,-0.0898 0.48438,-0.23047 0.82813,-0.67969 0.92188,-1.20704 1.12109,-6.35937 1.76172,-12.73437 1.91406,-18.9414 0.0117,-0.44141 -0.15234,-0.85938 -0.44922,-1.1836"
       fill-opacity="1"
       fill-rule="nonzero"
       id="path48"
       style="stroke-width:2.98389554;stroke-miterlimit:4;stroke-dasharray:none;stroke:#262626;fill:#262626" />
    <path
       fill="#262626"
       d="m 236.64062,410.91016 c 0.32813,0.11328 0.67188,0.11718 1,0.0234 0.0859,-0.0273 0.16407,-0.0625 0.2461,-0.0937 0.40234,-0.1914 0.70703,-0.53515 0.84765,-0.96093 0.29688,-0.86329 -0.16796,-1.80469 -1.03125,-2.09766 -5.97656,-2.02344 -11.78515,-4.39453 -17.26562,-7.05078 -0.44922,-0.21875 -0.97656,-0.21875 -1.42969,0 -0.33984,0.16015 -0.61328,0.43359 -0.77734,0.76953 -0.39844,0.82031 -0.0508,1.80859 0.76562,2.20703 5.60547,2.71094 11.53907,5.13672 17.64453,7.20313"
       fill-opacity="1"
       fill-rule="nonzero"
       id="path50"
       style="stroke-width:2.98389554;stroke-miterlimit:4;stroke-dasharray:none;stroke:#262626;fill:#262626" />
    <path
       fill="#262626"
       d="m 337.86328,207.20312 c -6.13672,0.92188 -12.33984,2.80079 -18.46094,5.60547 -0.80859,0.38282 -1.16406,1.35938 -0.78906,2.17578 0.34375,0.7461 1.1875,1.13282 1.97656,0.89844 0.0742,-0.0234 0.14453,-0.0547 0.21485,-0.082 5.8164,-2.66016 11.71875,-4.45312 17.55078,-5.32422 0.16406,-0.0234 0.32031,-0.0781 0.46875,-0.14844 0.66015,-0.3125 1.03125,-1.01171 0.92187,-1.73437 -0.0664,-0.4375 -0.30078,-0.82031 -0.65234,-1.08594 -0.35547,-0.26172 -0.79297,-0.37109 -1.23047,-0.30469"
       fill-opacity="1"
       fill-rule="nonzero"
       id="path52"
       style="stroke-width:2.98389554;stroke-miterlimit:4;stroke-dasharray:none;stroke:#262626;fill:#262626" />
    <path
       fill="#262626"
       d="m 484.17187,348.71484 c -5.21093,3.61719 -10.47265,7.13282 -15.63671,10.44922 -0.3711,0.23828 -0.625,0.60938 -0.71875,1.03906 -0.0977,0.4336 -0.0195,0.875 0.21875,1.2461 0.39843,0.61328 1.16406,0.89844 1.86328,0.6875 0.0859,-0.0234 0.16406,-0.0508 0.24218,-0.0937 0.0586,-0.0274 0.125,-0.0586 0.17969,-0.0977 5.21875,-3.35156 10.51953,-6.89062 15.73438,-10.51953 0.36328,-0.24609 0.60547,-0.62891 0.6875,-1.05859 0.0742,-0.4375 -0.0195,-0.87891 -0.27344,-1.23828 -0.51172,-0.74219 -1.52344,-0.94532 -2.29688,-0.41407"
       fill-opacity="1"
       fill-rule="nonzero"
       id="path54"
       style="stroke-width:2.98389554;stroke-miterlimit:4;stroke-dasharray:none;stroke:#262626;fill:#262626" />
    <path
       fill="#262626"
       d="m 572.83594,276.15234 c -0.49219,-0.49609 -1.25391,-0.6289 -1.88672,-0.32812 -0.16406,0.0781 -0.32031,0.1875 -0.45313,0.3125 -4.49218,4.44531 -9.05468,8.84375 -13.54687,13.07422 -0.32422,0.30468 -0.50781,0.71093 -0.51953,1.15234 -0.0156,0.44141 0.14453,0.85938 0.44531,1.18359 0.4375,0.46094 1.07422,0.63282 1.67578,0.44922 0.082,-0.0234 0.16406,-0.0508 0.23828,-0.0898 0.15625,-0.0742 0.29688,-0.17188 0.42188,-0.28906 4.50781,-4.23828 9.08203,-8.65625 13.60937,-13.12891 0.64844,-0.63672 0.65625,-1.6875 0.0156,-2.33594"
       fill-opacity="1"
       fill-rule="nonzero"
       id="path56"
       style="stroke-width:2.98389554;stroke-miterlimit:4;stroke-dasharray:none;stroke:#262626;fill:#262626" />
    <path
       fill="#262626"
       d="m 543.46875,301.67969 c -0.14063,0.0664 -0.27344,0.14843 -0.39063,0.25781 -4.68359,4.1875 -9.46093,8.33984 -14.19921,12.35156 -0.33985,0.28125 -0.54688,0.67969 -0.58204,1.1211 -0.0391,0.4414 0.0977,0.87109 0.38282,1.20703 0.42187,0.5039 1.10937,0.70312 1.73437,0.51562 0.082,-0.0234 0.16406,-0.0547 0.23828,-0.0898 0.125,-0.0586 0.25,-0.14063 0.35547,-0.22656 4.6875,-3.96875 9.48828,-8.14454 14.26953,-12.41407 0.33203,-0.29297 0.52735,-0.69922 0.55078,-1.14062 0.0234,-0.44141 -0.12109,-0.86328 -0.41796,-1.19141 -0.48829,-0.54687 -1.28516,-0.70703 -1.94141,-0.39062"
       fill-opacity="1"
       fill-rule="nonzero"
       id="path58"
       style="stroke-width:2.98389554;stroke-miterlimit:4;stroke-dasharray:none;stroke:#262626;fill:#262626" />
    <path
       fill="#262626"
       d="m 514.64844,326.03125 c -0.11328,0.0547 -0.21875,0.11719 -0.31641,0.19922 -4.98437,3.96484 -9.99609,7.83203 -14.90234,11.48828 -0.72657,0.54297 -0.875,1.58203 -0.33203,2.3125 0.41406,0.55469 1.13281,0.79297 1.79687,0.59766 0.082,-0.0234 0.16016,-0.0586 0.23828,-0.0937 0.10156,-0.0469 0.1875,-0.10547 0.27735,-0.16407 4.96093,-3.70312 10,-7.58984 14.98046,-11.55468 0.70704,-0.57032 0.83204,-1.60938 0.26172,-2.32422 -0.48437,-0.60547 -1.30859,-0.79297 -2.0039,-0.46094"
       fill-opacity="1"
       fill-rule="nonzero"
       id="path60"
       style="stroke-width:2.98389554;stroke-miterlimit:4;stroke-dasharray:none;stroke:#262626;fill:#262626" />
    <path
       fill="#262626"
       d="m 398.46094,337.78125 c -0.41407,0.19531 -0.72657,0.5625 -0.86328,0.99219 -1.8125,5.73828 -4.03516,11.60937 -6.61329,17.44531 -0.36718,0.83203 0.0117,1.8125 0.83985,2.17969 0.36328,0.16015 0.76562,0.18359 1.14062,0.0703 0.0859,-0.0234 0.16407,-0.0586 0.2461,-0.0937 0.35547,-0.17188 0.63672,-0.46094 0.79687,-0.82422 2.62891,-5.94531 4.89453,-11.92969 6.73828,-17.78125 0.27735,-0.86719 -0.20703,-1.79687 -1.07812,-2.07031 -0.39844,-0.12891 -0.82813,-0.0977 -1.20703,0.082"
       fill-opacity="1"
       fill-rule="nonzero"
       id="path62"
       style="stroke-width:2.98389554;stroke-miterlimit:4;stroke-dasharray:none;stroke:#262626;fill:#262626" />
    <path
       fill="#262626"
       d="m 437.39453,380.65625 z m 15.25,-11.71484 c -0.043,0.0234 -0.0859,0.043 -0.12891,0.0703 -5.45312,3.20703 -10.96875,6.29687 -16.39453,9.18359 -0.80859,0.42578 -1.11328,1.42969 -0.68359,2.23047 0.36328,0.69141 1.17578,1.03516 1.93359,0.80859 0.082,-0.0234 0.16797,-0.0547 0.25,-0.0976 l 0.0547,-0.0234 c 5.46484,-2.91016 11.02344,-6.02344 16.52344,-9.25 0.78125,-0.46484 1.04297,-1.48047 0.58203,-2.26172 -0.4375,-0.74609 -1.35938,-1.03125 -2.13672,-0.66015"
       fill-opacity="1"
       fill-rule="nonzero"
       id="path64"
       style="stroke-width:2.98389554;stroke-miterlimit:4;stroke-dasharray:none;stroke:#262626;fill:#262626" />
    <path
       fill="#262626"
       d="m 274.42187,418.99609 c 0.0859,-0.0234 0.16016,-0.0547 0.23829,-0.0898 0.51953,-0.24609 0.87109,-0.73438 0.9375,-1.30859 0.0976,-0.90625 -0.55469,-1.72657 -1.46094,-1.82813 -6.26563,-0.70703 -12.46875,-1.71875 -18.44141,-3.01953 -0.36328,-0.0781 -0.73047,-0.0391 -1.0625,0.12109 -0.46484,0.22266 -0.79297,0.64063 -0.90625,1.14063 -0.1914,0.89062 0.375,1.77344 1.26953,1.96875 6.07422,1.32031 12.39063,2.35937 18.76953,3.07812 0.22657,0.0234 0.44532,0.004 0.65625,-0.0625"
       fill-opacity="1"
       fill-rule="nonzero"
       id="path66"
       style="stroke-width:2.98389554;stroke-miterlimit:4;stroke-dasharray:none;stroke:#262626;fill:#262626" />
    <path
       fill="#262626"
       d="m 338.15625,432.55859 c -0.18359,0.0899 -0.35156,0.21094 -0.49219,0.36328 -4.19531,4.49219 -8.61328,9.03125 -13.13672,13.49219 -0.64843,0.64063 -0.65625,1.69141 -0.0156,2.33594 0.42969,0.4375 1.0625,0.59766 1.65234,0.42578 0.082,-0.0234 0.16016,-0.0586 0.23438,-0.0898 0.17187,-0.0859 0.32031,-0.1875 0.45312,-0.32032 4.57031,-4.51171 9.01953,-9.08203 13.22656,-13.58593 0.30079,-0.32422 0.45704,-0.74219 0.44141,-1.1875 -0.0117,-0.44141 -0.19922,-0.85157 -0.52344,-1.15235 -0.5,-0.46093 -1.22265,-0.57422 -1.83984,-0.28125"
       fill-opacity="1"
       fill-rule="nonzero"
       id="path68"
       style="stroke-width:2.98389554;stroke-miterlimit:4;stroke-dasharray:none;stroke:#262626;fill:#262626" />
    <path
       fill="#262626"
       d="m 311.26953,459.15234 c -0.14844,0.0703 -0.28516,0.16016 -0.40625,0.27344 -4.50781,4.14453 -9.24219,8.35547 -14.07422,12.52344 -0.6875,0.59765 -0.76172,1.64453 -0.16797,2.33203 0.42578,0.49609 1.10157,0.69141 1.71875,0.50391 0.082,-0.0234 0.16797,-0.0547 0.2461,-0.0937 0.13281,-0.0625 0.2539,-0.14063 0.36718,-0.23829 4.875,-4.20703 9.63282,-8.44531 14.14454,-12.59375 0.32812,-0.30078 0.51562,-0.70312 0.53125,-1.14453 0.0195,-0.4414 -0.13282,-0.86328 -0.42969,-1.1914 -0.4961,-0.53516 -1.27344,-0.6875 -1.92969,-0.3711"
       fill-opacity="1"
       fill-rule="nonzero"
       id="path70"
       style="stroke-width:2.98389554;stroke-miterlimit:4;stroke-dasharray:none;stroke:#262626;fill:#262626" />
    <path
       fill="#262626"
       d="m 282.66797,483.84766 c -0.11719,0.0625 -0.23047,0.13281 -0.33203,0.21093 -4.8125,3.91797 -9.78125,7.86719 -14.77735,11.71875 -0.71875,0.5586 -0.85547,1.60157 -0.29687,2.32422 0.42187,0.53906 1.11719,0.76563 1.77734,0.57422 0.082,-0.0234 0.16016,-0.0586 0.23438,-0.0937 0.10937,-0.0469 0.20703,-0.11328 0.30468,-0.18359 5.04297,-3.89844 10.03907,-7.85938 14.84375,-11.77735 0.34375,-0.27734 0.5586,-0.67187 0.60157,-1.11328 0.0469,-0.4414 -0.0859,-0.86719 -0.35938,-1.21094 -0.48437,-0.58984 -1.30078,-0.77734 -1.99609,-0.44921"
       fill-opacity="1"
       fill-rule="nonzero"
       id="path72"
       style="stroke-width:2.98389554;stroke-miterlimit:4;stroke-dasharray:none;stroke:#262626;fill:#262626" />
    <path
       fill="#262626"
       d="m 384.63281,400.94922 c -6.03515,2.125 -12.14844,3.97265 -17.89453,5.68359 l -0.0508,0.0156 c -0.84375,0.27734 -1.30859,1.20312 -1.07031,2.04687 0.2539,0.88281 1.1914,1.42188 2.05468,1.17188 0.67188,-0.19141 1.33985,-0.39453 2.00782,-0.60157 0.43359,-0.1289 0.86328,-0.26171 1.29687,-0.38671 4.75781,-1.42188 9.72266,-3.03907 14.75391,-4.8086 0.0508,-0.0156 0.10937,-0.0391 0.16015,-0.0625 0.76563,-0.36328 1.125,-1.25 0.84375,-2.05859 -0.14453,-0.41016 -0.4414,-0.7461 -0.83984,-0.9336 -0.39844,-0.1914 -0.84766,-0.21484 -1.26172,-0.0664"
       fill-opacity="1"
       fill-rule="nonzero"
       id="path74"
       style="stroke-width:2.98389554;stroke-miterlimit:4;stroke-dasharray:none;stroke:#262626;fill:#262626" />
    <path
       fill="#262626"
       d="m 364.28906,403.92578 c -0.49609,-0.37891 -1.15625,-0.44531 -1.71484,-0.17578 -0.23438,0.10937 -0.44531,0.28125 -0.60156,0.49219 -3.65625,4.8125 -7.6211,9.73828 -11.78907,14.63672 -0.58593,0.69531 -0.5039,1.74218 0.19141,2.33203 0.42187,0.36328 1,0.48437 1.54297,0.32422 0.082,-0.0234 0.16015,-0.0547 0.23437,-0.0899 0.21875,-0.10156 0.39844,-0.24219 0.55078,-0.42187 4.1836,-4.92188 8.1875,-9.89844 11.89844,-14.78125 0.55078,-0.73047 0.41016,-1.76563 -0.3125,-2.31641"
       fill-opacity="1"
       fill-rule="nonzero"
       id="path76"
       style="stroke-width:2.98389554;stroke-miterlimit:4;stroke-dasharray:none;stroke:#262626;fill:#262626" />
    <path
       fill="#262626"
       d="m 383.35156,372.26172 c -0.30859,0.14453 -0.5625,0.38281 -0.73437,0.68359 -2.9375,5.27735 -6.22657,10.66016 -9.76563,16 -0.24219,0.36719 -0.32812,0.8086 -0.23828,1.23828 0.0898,0.4375 0.33984,0.8086 0.70313,1.05078 0.41406,0.27344 0.91796,0.34375 1.38671,0.20704 0.082,-0.0274 0.16797,-0.0547 0.2461,-0.0977 0.26953,-0.125 0.49609,-0.32422 0.66015,-0.57422 3.58204,-5.41016 6.91407,-10.86328 9.89844,-16.21484 0.44141,-0.79688 0.15625,-1.80469 -0.64062,-2.2461 -0.46485,-0.26172 -1.03125,-0.27734 -1.51563,-0.0469"
       fill-opacity="1"
       fill-rule="nonzero"
       id="path78"
       style="stroke-width:2.98389554;stroke-miterlimit:4;stroke-dasharray:none;stroke:#262626;fill:#262626" />
    <path
       fill="#262626"
       d="m 420.52734,389.14453 z m -1.1914,-2.50781 c -5.69922,2.69922 -11.46875,5.26172 -17.16797,7.62109 -0.84375,0.34375 -1.24219,1.32031 -0.89453,2.16016 0.32812,0.78125 1.1875,1.1914 1.98437,0.95312 0.0625,-0.0156 0.0977,-0.0703 0.16016,-0.0937 5.73437,-2.375 11.54687,-4.98437 17.29687,-7.72656 l 0.004,-0.004 c 0.82031,-0.39062 1.1875,-1.34375 0.79687,-2.16015 -0.1875,-0.40235 -0.51171,-0.6836 -0.92578,-0.83594 -0.41797,-0.14453 -0.85547,-0.10547 -1.2539,0.0859"
       fill-opacity="1"
       fill-rule="nonzero"
       id="path80"
       style="stroke-width:2.98389554;stroke-miterlimit:4;stroke-dasharray:none;stroke:#262626;fill:#262626" />
    <g
       clip-path="url(#e5137d51b3)"
       id="g84"
       style="stroke-width:2.98389554;stroke-miterlimit:4;stroke-dasharray:none;stroke:#262626;fill:#262626">
      <path
         fill="#262626"
         d="m 600.25781,226.10937 124.0586,-64.54296 -77.09375,112.26953 z m -1.52734,1.88282 15.99609,16.2539 L 584,267.97266 Z m 109.23828,-62.92969 -128.71484,51.85937 -47.6211,-3.19531 z m -110.26563,59.66016 c -0.0195,0.0117 -0.0352,0.0234 -0.0547,0.0352 -0.0547,0.0312 -0.10157,0.0664 -0.15235,0.10156 -0.0195,0.0195 -0.0391,0.0391 -0.0625,0.0586 -0.043,0.0391 -0.082,0.0859 -0.12109,0.13281 -0.0195,0.0234 -0.0312,0.043 -0.0469,0.0664 -0.0391,0.0508 -0.0664,0.10547 -0.0937,0.16015 -0.008,0.0273 -0.0234,0.0469 -0.0312,0.0742 -0.008,0.0117 -0.0117,0.0156 -0.0156,0.0234 l -14.72656,39.96875 -1.71875,-46.39844 124.72656,-50.2539 z m 131.51172,-66.19922 c 0.0156,-0.0508 0.0195,-0.10547 0.0234,-0.16407 0.008,-0.0234 0.008,-0.0469 0.008,-0.0703 0,-0.0469 0,-0.0937 -0.008,-0.14453 -0.004,-0.0234 -0.008,-0.0469 -0.0117,-0.0742 -0.004,-0.0469 -0.0195,-0.0937 -0.0351,-0.14062 -0.004,-0.0156 -0.004,-0.0273 -0.008,-0.043 -0.004,-0.0156 -0.008,-0.0195 -0.0156,-0.0273 -0.0117,-0.0469 -0.0352,-0.0937 -0.0586,-0.13671 -0.0117,-0.0234 -0.0195,-0.0469 -0.0352,-0.0664 -0.0234,-0.0469 -0.0547,-0.082 -0.0898,-0.125 -0.0117,-0.0195 -0.0234,-0.0391 -0.0352,-0.0508 0,0 -0.004,-0.008 -0.004,-0.008 -0.0469,-0.0508 -0.10156,-0.10157 -0.15234,-0.14454 -0.008,-0.004 -0.0117,-0.008 -0.0234,-0.0156 -0.0508,-0.0352 -0.0977,-0.0742 -0.15234,-0.10156 -0.0195,-0.008 -0.043,-0.0195 -0.0625,-0.0273 -0.043,-0.0195 -0.0899,-0.0391 -0.13282,-0.0508 -0.0273,-0.0117 -0.0547,-0.0195 -0.0781,-0.0234 -0.043,-0.0117 -0.0859,-0.0195 -0.12891,-0.0312 -0.0273,-0.004 -0.0547,-0.004 -0.0859,-0.008 -0.043,0 -0.0859,0 -0.12891,0 -0.0273,0 -0.0547,0 -0.082,0.004 -0.0469,0.004 -0.10156,0.0156 -0.14844,0.0234 -0.0117,0.004 -0.0312,0.004 -0.0469,0.0117 l -203.57032,56.1875 c -0.5664,0.15235 -0.9375,0.69532 -0.8789,1.28125 0.0586,0.58594 0.52734,1.03907 1.11718,1.07813 l 53.89063,3.61328 1.94141,52.26172 c 0,0.004 0,0.008 0,0.0117 0,0.0391 0.008,0.0742 0.0117,0.11328 0.004,0.0391 0.0117,0.0742 0.0195,0.10937 0.008,0.0352 0.0195,0.0703 0.0312,0.10547 0.0156,0.0391 0.0234,0.0664 0.0391,0.10157 0.0156,0.0312 0.0312,0.0625 0.0508,0.10156 0.0195,0.0273 0.0391,0.0625 0.0625,0.0937 0.008,0.0156 0.0195,0.0312 0.0312,0.0508 0.008,0.0117 0.0195,0.0195 0.0312,0.0273 0.0469,0.0586 0.0977,0.11328 0.15625,0.16407 0.0117,0.0117 0.0234,0.0195 0.0352,0.0312 0.0586,0.0391 0.125,0.082 0.1914,0.11718 0.0234,0.0117 0.0469,0.0234 0.0703,0.0312 0.0625,0.0234 0.1211,0.043 0.1875,0.0625 0.0195,0.004 0.0391,0.008 0.0625,0.0117 0.008,0.008 0.0195,0.0117 0.0312,0.0117 0.0742,0.008 0.15625,0.0117 0.23438,0.0117 0.0625,-0.004 0.12109,-0.008 0.18359,-0.0234 0.008,0 0.0195,-0.004 0.0274,-0.004 0.0508,-0.0117 0.0976,-0.0234 0.14843,-0.043 0.0117,-0.004 0.0234,-0.008 0.0352,-0.0117 0.0469,-0.0195 0.0898,-0.0391 0.13281,-0.0625 0.008,-0.004 0.0234,-0.0156 0.0312,-0.0195 0.043,-0.0234 0.0859,-0.0508 0.1211,-0.0781 0.008,-0.004 0.008,-0.004 0.0117,-0.004 l 34.26953,-26.46485 30.10156,30.58985 c 0.23437,0.23828 0.5625,0.37109 0.89844,0.35546 0.0156,0 0.0547,0 0.0625,-0.004 0.35937,-0.0274 0.68359,-0.22266 0.88672,-0.51563 L 729.03484,158.9525 c 0.082,-0.11718 0.14062,-0.25 0.17187,-0.38281 0.004,-0.0156 0.004,-0.0312 0.008,-0.0469"
         fill-opacity="1"
         fill-rule="nonzero"
         id="path82"
         style="stroke-width:2.98389554;stroke-miterlimit:4;stroke-dasharray:none;stroke:#262626;fill:#262626" />
    </g>
  </g>
</svg>
