<?xml version="1.0" encoding="UTF-8"?>
<svg id="Layer_1" data-name="Layer 1" xmlns="http://www.w3.org/2000/svg" xmlns:xlink="http://www.w3.org/1999/xlink" viewBox="0 0 500 105.33">
  <defs>
    <style>
      .cls-1 {
        fill: url(#linear-gradient);
      }

      .cls-1, .cls-2, .cls-3, .cls-4 {
        stroke-width: 0px;
      }

      .cls-2 {
        fill: #0000f5;
      }

      .cls-3 {
        fill: url(#linear-gradient-2);
      }

      .cls-4 {
        fill: url(#linear-gradient-3);
      }
    </style>
    <linearGradient id="linear-gradient" x1="51.92" y1=".37" x2="51.92" y2="223.34" gradientUnits="userSpaceOnUse">
      <stop offset="0" stop-color="#dabfff"/>
      <stop offset=".44" stop-color="#0000f5"/>
    </linearGradient>
    <linearGradient id="linear-gradient-2" x1="64.08" y1="105.33" x2="64.08" y2="29.96" gradientUnits="userSpaceOnUse">
      <stop offset="0" stop-color="#e8963d"/>
      <stop offset=".62" stop-color="#e9655d"/>
    </linearGradient>
    <linearGradient id="linear-gradient-3" x1="114.47" y1="105.33" x2="114.47" y2="44.85" gradientUnits="userSpaceOnUse">
      <stop offset="0" stop-color="#e46d2f"/>
      <stop offset="1" stop-color="#f3e94e"/>
    </linearGradient>
  </defs>
  <g>
    <path class="cls-2" d="M155.92,45.59h11.52l7.71,24.45,7.59-22.88h9.39l7.59,22.88,7.62-24.45h11.3l-13.92,41.31h-9.5l-7.93-22.65-7.87,22.65h-9.5l-14.01-41.31Z"/>
    <path class="cls-2" d="M216.53,71.56v-.11c0-8.88,6.35-15.91,15.34-15.91,10.51,0,15.34,7.7,15.34,16.64,0,.68,0,1.46-.06,2.19h-20.35c.84,3.32,3.26,5,6.58,5,2.53,0,4.55-.96,6.75-3.09l5.9,4.89c-2.92,3.71-7.14,6.18-13.21,6.18-9.56,0-16.3-6.35-16.3-15.79ZM237.21,68.91c-.39-3.37-2.36-5.51-5.28-5.51s-4.72,2.19-5.28,5.51h10.57Z"/>
    <path class="cls-2" d="M250.54,71.56v-.11c0-8.88,6.35-15.91,15.34-15.91,10.51,0,15.34,7.7,15.34,16.64,0,.68,0,1.46-.06,2.19h-20.35c.84,3.32,3.26,5,6.58,5,2.53,0,4.55-.96,6.75-3.09l5.9,4.89c-2.92,3.71-7.14,6.18-13.21,6.18-9.56,0-16.3-6.35-16.3-15.79ZM271.22,68.91c-.39-3.37-2.36-5.51-5.28-5.51s-4.72,2.19-5.28,5.51h10.57Z"/>
    <path class="cls-2" d="M285.78,45.59h10.68v20.8l8.26-10.17h12.09l-10.57,12.2,10.85,18.21h-11.75l-6.13-10.34-2.76,3.2v7.14h-10.68v-41.03Z"/>
    <path class="cls-2" d="M316.76,71.56v-.11c0-8.88,6.35-15.91,15.34-15.91,10.51,0,15.34,7.7,15.34,16.64,0,.68,0,1.46-.06,2.19h-20.35c.84,3.32,3.26,5,6.58,5,2.53,0,4.55-.96,6.75-3.09l5.9,4.89c-2.92,3.71-7.14,6.18-13.21,6.18-9.56,0-16.3-6.35-16.3-15.79ZM337.44,68.91c-.39-3.37-2.36-5.51-5.28-5.51s-4.72,2.19-5.28,5.51h10.57Z"/>
    <path class="cls-2" d="M352,56.21h10.68v4.27c1.97-2.53,4.78-4.95,9.11-4.95,6.46,0,10.34,4.27,10.34,11.19v19.9h-10.68v-16.47c0-3.32-1.74-5.11-4.27-5.11s-4.5,1.8-4.5,5.11v16.47h-10.68v-30.41Z"/>
    <path class="cls-2" d="M386.52,71.56v-.11c0-9.89,6.18-15.91,13.38-15.91,4.61,0,7.31,2.08,9.33,4.38v-14.33h10.68v41.03h-10.68v-4.05c-2.08,2.53-4.72,4.72-9.27,4.72-7.19,0-13.43-6.02-13.43-15.74ZM409.39,71.44v-.11c0-3.99-2.75-6.86-6.18-6.86s-6.24,2.81-6.24,6.86v.11c0,4.05,2.81,6.91,6.24,6.91s6.18-2.87,6.18-6.91Z"/>
    <path class="cls-2" d="M428.64,45.59h28.27v4.1h-23.83v14.05h21.3v4.05h-21.3v19.11h-4.44v-41.31Z"/>
    <path class="cls-2" d="M462.22,45.59h4.33v41.03h-4.33v-41.03Z"/>
    <path class="cls-2" d="M471.95,94.32l1.46-3.43c1.41.73,2.7,1.07,4.55,1.07,2.59,0,4.22-1.35,5.96-5.45l-13.21-28.95h4.78l10.57,24.23,9.33-24.23h4.61l-12.2,30.02c-2.47,6.01-5.28,8.21-9.67,8.21-2.42,0-4.22-.51-6.18-1.46Z"/>
  </g>
  <g>
    <path class="cls-1" d="M103.84,66.86l-10.75-32.41-8.61-2.25-6.4-1.68c-9.32-2.36-18.89,2.76-22.13,11.79l-.04.09c-.04.11-.08.23-.12.35l-.7,2.11-7.29,22-13.32-40.76C29.84,11.89,17.29,1.61,2.41.15c-1.54-.15-2.41-.15-2.41-.15l26.09,78.1,8.59,26.03.4,1.19h22.46s0-.02.02-.06c.02-.05.04-.11.07-.19l17.86-51.41,18.07,51.67,10.26-38.46Z"/>
    <path class="cls-3" d="M35.08,105.33l21.01-63.44c2.94-8.87,10.51-13.3,21.3-11.55l15.69,4.12s-13.38,4.92-17.59,19.2c-3.47,11.77-17.95,51.67-17.95,51.67h-22.46Z"/>
    <path class="cls-4" d="M93.57,105.33l10.26-38.46s5.04-26.73,31.54-21.28l-20.13,59.74h-21.67Z"/>
  </g>
</svg>